<mxfile host="app.diagrams.net" modified="2021-01-16T07:24:26.713Z" agent="5.0 (Macintosh; Intel Mac OS X 10_15_4) AppleWebKit/537.36 (KHTML, like Gecko) Chrome/87.0.4280.141 Safari/537.36" etag="zz6P1_puHqmdc0cSKBs5" version="14.1.1" type="github" pages="8">
  <diagram id="o3-bJjVBHSmcYyEv4fWN" name="Page-2">
    <mxGraphModel dx="669" dy="1813" grid="1" gridSize="10" guides="1" tooltips="1" connect="1" arrows="1" fold="1" page="1" pageScale="1" pageWidth="827" pageHeight="1169" math="0" shadow="0">
      <root>
        <mxCell id="onXrdVWmK0-_egrpfyDH-0" />
        <mxCell id="onXrdVWmK0-_egrpfyDH-1" parent="onXrdVWmK0-_egrpfyDH-0" />
        <mxCell id="MR5USEtfO1y4zSugbkPT-0" value="Node" style="rounded=1;whiteSpace=wrap;html=1;verticalAlign=top;" parent="onXrdVWmK0-_egrpfyDH-1" vertex="1">
          <mxGeometry x="80" y="-10" width="560" height="170" as="geometry" />
        </mxCell>
        <mxCell id="MR5USEtfO1y4zSugbkPT-20" value="" style="endArrow=classic;startArrow=classic;html=1;exitX=0.5;exitY=0;exitDx=0;exitDy=0;entryX=0.143;entryY=0.988;entryDx=0;entryDy=0;entryPerimeter=0;" parent="onXrdVWmK0-_egrpfyDH-1" source="MR5USEtfO1y4zSugbkPT-2" target="MR5USEtfO1y4zSugbkPT-0" edge="1">
          <mxGeometry width="50" height="50" relative="1" as="geometry">
            <mxPoint x="400" y="230" as="sourcePoint" />
            <mxPoint x="160" y="165" as="targetPoint" />
          </mxGeometry>
        </mxCell>
        <mxCell id="MR5USEtfO1y4zSugbkPT-21" value="UnixSocket(json)" style="edgeLabel;html=1;align=center;verticalAlign=middle;resizable=0;points=[];" parent="MR5USEtfO1y4zSugbkPT-20" vertex="1" connectable="0">
          <mxGeometry x="0.15" relative="1" as="geometry">
            <mxPoint as="offset" />
          </mxGeometry>
        </mxCell>
        <mxCell id="MR5USEtfO1y4zSugbkPT-2" value="Worker" style="rounded=0;whiteSpace=wrap;html=1;verticalAlign=top;" parent="onXrdVWmK0-_egrpfyDH-1" vertex="1">
          <mxGeometry x="80" y="240" width="160" height="100" as="geometry" />
        </mxCell>
        <mxCell id="MR5USEtfO1y4zSugbkPT-26" value="Mixer" style="rounded=1;whiteSpace=wrap;html=1;" parent="onXrdVWmK0-_egrpfyDH-1" vertex="1">
          <mxGeometry x="90" y="280" width="40" height="40" as="geometry" />
        </mxCell>
        <mxCell id="MR5USEtfO1y4zSugbkPT-28" value="Output" style="rounded=1;whiteSpace=wrap;html=1;" parent="onXrdVWmK0-_egrpfyDH-1" vertex="1">
          <mxGeometry x="190" y="280" width="40" height="40" as="geometry" />
        </mxCell>
        <mxCell id="MR5USEtfO1y4zSugbkPT-29" value="Input" style="rounded=1;whiteSpace=wrap;html=1;" parent="onXrdVWmK0-_egrpfyDH-1" vertex="1">
          <mxGeometry x="140" y="280" width="40" height="40" as="geometry" />
        </mxCell>
        <mxCell id="MR5USEtfO1y4zSugbkPT-36" value="" style="endArrow=classic;startArrow=classic;html=1;exitX=0.5;exitY=0;exitDx=0;exitDy=0;entryX=0.143;entryY=0.988;entryDx=0;entryDy=0;entryPerimeter=0;" parent="onXrdVWmK0-_egrpfyDH-1" source="MR5USEtfO1y4zSugbkPT-38" edge="1">
          <mxGeometry width="50" height="50" relative="1" as="geometry">
            <mxPoint x="600" y="230" as="sourcePoint" />
            <mxPoint x="360.08000000000004" y="159.03999999999996" as="targetPoint" />
          </mxGeometry>
        </mxCell>
        <mxCell id="MR5USEtfO1y4zSugbkPT-37" value="UnixSocket(json)" style="edgeLabel;html=1;align=center;verticalAlign=middle;resizable=0;points=[];" parent="MR5USEtfO1y4zSugbkPT-36" vertex="1" connectable="0">
          <mxGeometry x="0.15" relative="1" as="geometry">
            <mxPoint as="offset" />
          </mxGeometry>
        </mxCell>
        <mxCell id="MR5USEtfO1y4zSugbkPT-38" value="Worker" style="rounded=0;whiteSpace=wrap;html=1;verticalAlign=top;" parent="onXrdVWmK0-_egrpfyDH-1" vertex="1">
          <mxGeometry x="280" y="240" width="160" height="100" as="geometry" />
        </mxCell>
        <mxCell id="MR5USEtfO1y4zSugbkPT-39" value="Mixer" style="rounded=1;whiteSpace=wrap;html=1;" parent="onXrdVWmK0-_egrpfyDH-1" vertex="1">
          <mxGeometry x="290" y="280" width="40" height="40" as="geometry" />
        </mxCell>
        <mxCell id="MR5USEtfO1y4zSugbkPT-40" value="Output" style="rounded=1;whiteSpace=wrap;html=1;" parent="onXrdVWmK0-_egrpfyDH-1" vertex="1">
          <mxGeometry x="390" y="280" width="40" height="40" as="geometry" />
        </mxCell>
        <mxCell id="MR5USEtfO1y4zSugbkPT-41" value="Input" style="rounded=1;whiteSpace=wrap;html=1;" parent="onXrdVWmK0-_egrpfyDH-1" vertex="1">
          <mxGeometry x="340" y="280" width="40" height="40" as="geometry" />
        </mxCell>
        <mxCell id="MR5USEtfO1y4zSugbkPT-42" value="" style="endArrow=classic;startArrow=classic;html=1;exitX=0.5;exitY=0;exitDx=0;exitDy=0;entryX=0.143;entryY=0.988;entryDx=0;entryDy=0;entryPerimeter=0;" parent="onXrdVWmK0-_egrpfyDH-1" source="MR5USEtfO1y4zSugbkPT-44" edge="1">
          <mxGeometry width="50" height="50" relative="1" as="geometry">
            <mxPoint x="800" y="230" as="sourcePoint" />
            <mxPoint x="560.08" y="159.03999999999996" as="targetPoint" />
          </mxGeometry>
        </mxCell>
        <mxCell id="MR5USEtfO1y4zSugbkPT-43" value="UnixSocket(json)" style="edgeLabel;html=1;align=center;verticalAlign=middle;resizable=0;points=[];" parent="MR5USEtfO1y4zSugbkPT-42" vertex="1" connectable="0">
          <mxGeometry x="0.15" relative="1" as="geometry">
            <mxPoint as="offset" />
          </mxGeometry>
        </mxCell>
        <mxCell id="MR5USEtfO1y4zSugbkPT-44" value="Worker" style="rounded=0;whiteSpace=wrap;html=1;verticalAlign=top;" parent="onXrdVWmK0-_egrpfyDH-1" vertex="1">
          <mxGeometry x="480" y="240" width="160" height="100" as="geometry" />
        </mxCell>
        <mxCell id="MR5USEtfO1y4zSugbkPT-45" value="Mixer" style="rounded=1;whiteSpace=wrap;html=1;" parent="onXrdVWmK0-_egrpfyDH-1" vertex="1">
          <mxGeometry x="490" y="280" width="40" height="40" as="geometry" />
        </mxCell>
        <mxCell id="MR5USEtfO1y4zSugbkPT-46" value="Output" style="rounded=1;whiteSpace=wrap;html=1;" parent="onXrdVWmK0-_egrpfyDH-1" vertex="1">
          <mxGeometry x="590" y="280" width="40" height="40" as="geometry" />
        </mxCell>
        <mxCell id="MR5USEtfO1y4zSugbkPT-47" value="Input" style="rounded=1;whiteSpace=wrap;html=1;" parent="onXrdVWmK0-_egrpfyDH-1" vertex="1">
          <mxGeometry x="540" y="280" width="40" height="40" as="geometry" />
        </mxCell>
        <mxCell id="MR5USEtfO1y4zSugbkPT-48" value="media" style="rounded=0;whiteSpace=wrap;html=1;align=center;verticalAlign=top;" parent="onXrdVWmK0-_egrpfyDH-1" vertex="1">
          <mxGeometry x="100" y="90" width="520" height="60" as="geometry" />
        </mxCell>
        <mxCell id="MR5USEtfO1y4zSugbkPT-49" value="Mixer" style="rounded=1;whiteSpace=wrap;html=1;" parent="onXrdVWmK0-_egrpfyDH-1" vertex="1">
          <mxGeometry x="110" y="100" width="40" height="40" as="geometry" />
        </mxCell>
        <mxCell id="MR5USEtfO1y4zSugbkPT-50" value="UDP&lt;br&gt;Input" style="rounded=1;whiteSpace=wrap;html=1;" parent="onXrdVWmK0-_egrpfyDH-1" vertex="1">
          <mxGeometry x="160" y="100" width="40" height="40" as="geometry" />
        </mxCell>
        <mxCell id="MR5USEtfO1y4zSugbkPT-51" value="RTP&lt;br&gt;Input" style="rounded=1;whiteSpace=wrap;html=1;" parent="onXrdVWmK0-_egrpfyDH-1" vertex="1">
          <mxGeometry x="210" y="100" width="40" height="40" as="geometry" />
        </mxCell>
        <mxCell id="MR5USEtfO1y4zSugbkPT-53" value="" style="endArrow=none;dashed=1;html=1;dashPattern=1 3;strokeWidth=2;" parent="onXrdVWmK0-_egrpfyDH-1" edge="1">
          <mxGeometry width="50" height="50" relative="1" as="geometry">
            <mxPoint x="270" y="119.5" as="sourcePoint" />
            <mxPoint x="350" y="119.5" as="targetPoint" />
          </mxGeometry>
        </mxCell>
        <mxCell id="MR5USEtfO1y4zSugbkPT-56" value="Signal" style="rounded=1;whiteSpace=wrap;html=1;align=center;" parent="onXrdVWmK0-_egrpfyDH-1" vertex="1">
          <mxGeometry x="280" y="-180" width="160" height="60" as="geometry" />
        </mxCell>
        <mxCell id="MR5USEtfO1y4zSugbkPT-57" value="" style="endArrow=classic;startArrow=classic;html=1;entryX=0.5;entryY=1;entryDx=0;entryDy=0;" parent="onXrdVWmK0-_egrpfyDH-1" target="MR5USEtfO1y4zSugbkPT-56" edge="1">
          <mxGeometry width="50" height="50" relative="1" as="geometry">
            <mxPoint x="360" y="-11" as="sourcePoint" />
            <mxPoint x="450" y="-130" as="targetPoint" />
          </mxGeometry>
        </mxCell>
        <mxCell id="MR5USEtfO1y4zSugbkPT-58" value="ws" style="edgeLabel;html=1;align=center;verticalAlign=middle;resizable=0;points=[];" parent="MR5USEtfO1y4zSugbkPT-57" vertex="1" connectable="0">
          <mxGeometry x="0.0336" y="1" relative="1" as="geometry">
            <mxPoint as="offset" />
          </mxGeometry>
        </mxCell>
        <mxCell id="MR5USEtfO1y4zSugbkPT-60" value="Signal" style="rounded=0;whiteSpace=wrap;html=1;align=center;" parent="onXrdVWmK0-_egrpfyDH-1" vertex="1">
          <mxGeometry x="305" y="10" width="110" height="60" as="geometry" />
        </mxCell>
        <mxCell id="MR5USEtfO1y4zSugbkPT-62" value="Script" style="rounded=0;whiteSpace=wrap;html=1;align=center;" parent="onXrdVWmK0-_egrpfyDH-1" vertex="1">
          <mxGeometry x="505" y="10" width="110" height="60" as="geometry" />
        </mxCell>
        <mxCell id="MR5USEtfO1y4zSugbkPT-64" value="" style="endArrow=classic;html=1;exitX=1;exitY=0.5;exitDx=0;exitDy=0;entryX=0;entryY=0.5;entryDx=0;entryDy=0;" parent="onXrdVWmK0-_egrpfyDH-1" source="MR5USEtfO1y4zSugbkPT-60" target="MR5USEtfO1y4zSugbkPT-62" edge="1">
          <mxGeometry width="50" height="50" relative="1" as="geometry">
            <mxPoint x="400" y="60" as="sourcePoint" />
            <mxPoint x="450" y="10" as="targetPoint" />
          </mxGeometry>
        </mxCell>
        <mxCell id="MR5USEtfO1y4zSugbkPT-65" value="Script server" style="rounded=1;whiteSpace=wrap;html=1;align=center;" parent="onXrdVWmK0-_egrpfyDH-1" vertex="1">
          <mxGeometry x="480" y="-180" width="160" height="60" as="geometry" />
        </mxCell>
        <mxCell id="MR5USEtfO1y4zSugbkPT-67" value="" style="endArrow=classic;startArrow=classic;html=1;entryX=0.5;entryY=1;entryDx=0;entryDy=0;" parent="onXrdVWmK0-_egrpfyDH-1" source="MR5USEtfO1y4zSugbkPT-62" edge="1">
          <mxGeometry width="50" height="50" relative="1" as="geometry">
            <mxPoint x="559.5" y="-11" as="sourcePoint" />
            <mxPoint x="559.5" y="-120" as="targetPoint" />
          </mxGeometry>
        </mxCell>
        <mxCell id="MR5USEtfO1y4zSugbkPT-68" value="http" style="edgeLabel;html=1;align=center;verticalAlign=middle;resizable=0;points=[];" parent="MR5USEtfO1y4zSugbkPT-67" vertex="1" connectable="0">
          <mxGeometry x="0.0336" y="1" relative="1" as="geometry">
            <mxPoint as="offset" />
          </mxGeometry>
        </mxCell>
        <mxCell id="MR5USEtfO1y4zSugbkPT-74" value="" style="endArrow=classic;html=1;entryX=0.888;entryY=0;entryDx=0;entryDy=0;entryPerimeter=0;exitX=0.5;exitY=1;exitDx=0;exitDy=0;" parent="onXrdVWmK0-_egrpfyDH-1" source="MR5USEtfO1y4zSugbkPT-62" target="MR5USEtfO1y4zSugbkPT-48" edge="1">
          <mxGeometry width="50" height="50" relative="1" as="geometry">
            <mxPoint x="400" y="110" as="sourcePoint" />
            <mxPoint x="450" y="60" as="targetPoint" />
          </mxGeometry>
        </mxCell>
        <mxCell id="MR5USEtfO1y4zSugbkPT-77" style="edgeStyle=orthogonalEdgeStyle;rounded=0;orthogonalLoop=1;jettySize=auto;html=1;entryX=0.5;entryY=0;entryDx=0;entryDy=0;" parent="onXrdVWmK0-_egrpfyDH-1" source="MR5USEtfO1y4zSugbkPT-76" target="MR5USEtfO1y4zSugbkPT-65" edge="1">
          <mxGeometry relative="1" as="geometry" />
        </mxCell>
        <mxCell id="MR5USEtfO1y4zSugbkPT-78" value="upload" style="edgeLabel;html=1;align=center;verticalAlign=middle;resizable=0;points=[];" parent="MR5USEtfO1y4zSugbkPT-77" vertex="1" connectable="0">
          <mxGeometry x="0.472" y="-1" relative="1" as="geometry">
            <mxPoint as="offset" />
          </mxGeometry>
        </mxCell>
        <mxCell id="MR5USEtfO1y4zSugbkPT-76" value="Client SDK" style="rounded=1;whiteSpace=wrap;html=1;align=center;" parent="onXrdVWmK0-_egrpfyDH-1" vertex="1">
          <mxGeometry x="280" y="-340" width="160" height="60" as="geometry" />
        </mxCell>
        <mxCell id="MR5USEtfO1y4zSugbkPT-79" value="template" style="endArrow=classic;html=1;exitX=0.5;exitY=1;exitDx=0;exitDy=0;entryX=0.5;entryY=0;entryDx=0;entryDy=0;" parent="onXrdVWmK0-_egrpfyDH-1" source="MR5USEtfO1y4zSugbkPT-76" target="MR5USEtfO1y4zSugbkPT-56" edge="1">
          <mxGeometry width="50" height="50" relative="1" as="geometry">
            <mxPoint x="400" y="-120" as="sourcePoint" />
            <mxPoint x="450" y="-170" as="targetPoint" />
          </mxGeometry>
        </mxCell>
      </root>
    </mxGraphModel>
  </diagram>
  <diagram id="7ghSvOcURpX6QpW2IZW3" name="Page-4">
    <mxGraphModel dx="1625" dy="1763" grid="1" gridSize="10" guides="1" tooltips="1" connect="1" arrows="1" fold="1" page="1" pageScale="1" pageWidth="827" pageHeight="1169" math="0" shadow="0">
      <root>
        <mxCell id="0CKxUs-SAW2n3wOCLj2P-0" />
        <mxCell id="0CKxUs-SAW2n3wOCLj2P-1" parent="0CKxUs-SAW2n3wOCLj2P-0" />
        <mxCell id="0CKxUs-SAW2n3wOCLj2P-93" value="&lt;font style=&quot;font-size: 18px&quot;&gt;SFU&lt;/font&gt;" style="rounded=0;whiteSpace=wrap;html=1;verticalAlign=top;" parent="0CKxUs-SAW2n3wOCLj2P-1" vertex="1">
          <mxGeometry x="20" y="-30" width="220" height="670" as="geometry" />
        </mxCell>
        <mxCell id="0CKxUs-SAW2n3wOCLj2P-4" value="" style="shape=flexArrow;endArrow=classic;html=1;entryX=0;entryY=0.222;entryDx=0;entryDy=0;entryPerimeter=0;exitX=1.009;exitY=0.221;exitDx=0;exitDy=0;exitPerimeter=0;" parent="0CKxUs-SAW2n3wOCLj2P-1" source="0CKxUs-SAW2n3wOCLj2P-93" target="0CKxUs-SAW2n3wOCLj2P-5" edge="1">
          <mxGeometry width="50" height="50" relative="1" as="geometry">
            <mxPoint x="290" y="110" as="sourcePoint" />
            <mxPoint x="420" y="170" as="targetPoint" />
          </mxGeometry>
        </mxCell>
        <mxCell id="0CKxUs-SAW2n3wOCLj2P-6" value="PlainTransport" style="edgeLabel;html=1;align=center;verticalAlign=middle;resizable=0;points=[];" parent="0CKxUs-SAW2n3wOCLj2P-4" vertex="1" connectable="0">
          <mxGeometry x="-0.0625" y="1" relative="1" as="geometry">
            <mxPoint as="offset" />
          </mxGeometry>
        </mxCell>
        <mxCell id="0CKxUs-SAW2n3wOCLj2P-5" value="&lt;font style=&quot;font-size: 18px&quot;&gt;MCU&lt;/font&gt;" style="whiteSpace=wrap;html=1;aspect=fixed;verticalAlign=top;" parent="0CKxUs-SAW2n3wOCLj2P-1" vertex="1">
          <mxGeometry x="440" y="-30" width="665" height="665" as="geometry" />
        </mxCell>
        <mxCell id="0CKxUs-SAW2n3wOCLj2P-8" value="consumer" style="rounded=0;whiteSpace=wrap;html=1;" parent="0CKxUs-SAW2n3wOCLj2P-1" vertex="1">
          <mxGeometry x="180" y="100" width="60" height="20" as="geometry" />
        </mxCell>
        <mxCell id="0CKxUs-SAW2n3wOCLj2P-9" value="consumer" style="rounded=0;whiteSpace=wrap;html=1;" parent="0CKxUs-SAW2n3wOCLj2P-1" vertex="1">
          <mxGeometry x="180" y="120" width="60" height="20" as="geometry" />
        </mxCell>
        <mxCell id="0CKxUs-SAW2n3wOCLj2P-13" value="&lt;span&gt;RtpConnection&lt;/span&gt;" style="rounded=0;whiteSpace=wrap;html=1;" parent="0CKxUs-SAW2n3wOCLj2P-1" vertex="1">
          <mxGeometry x="440" y="90" width="110" height="80" as="geometry" />
        </mxCell>
        <mxCell id="0CKxUs-SAW2n3wOCLj2P-14" value="Stream" style="rounded=0;whiteSpace=wrap;html=1;" parent="0CKxUs-SAW2n3wOCLj2P-1" vertex="1">
          <mxGeometry x="550" y="90" width="50" height="40" as="geometry" />
        </mxCell>
        <mxCell id="0CKxUs-SAW2n3wOCLj2P-29" style="edgeStyle=orthogonalEdgeStyle;rounded=0;orthogonalLoop=1;jettySize=auto;html=1;entryX=0.5;entryY=0;entryDx=0;entryDy=0;" parent="0CKxUs-SAW2n3wOCLj2P-1" source="0CKxUs-SAW2n3wOCLj2P-20" target="0CKxUs-SAW2n3wOCLj2P-22" edge="1">
          <mxGeometry relative="1" as="geometry">
            <Array as="points">
              <mxPoint x="890" y="100" />
            </Array>
          </mxGeometry>
        </mxCell>
        <mxCell id="0CKxUs-SAW2n3wOCLj2P-41" value="InternalPipe.in" style="edgeLabel;html=1;align=center;verticalAlign=middle;resizable=0;points=[];" parent="0CKxUs-SAW2n3wOCLj2P-29" vertex="1" connectable="0">
          <mxGeometry x="-0.6324" y="2" relative="1" as="geometry">
            <mxPoint as="offset" />
          </mxGeometry>
        </mxCell>
        <mxCell id="0CKxUs-SAW2n3wOCLj2P-20" value="VideoFrameConstructor" style="rounded=0;whiteSpace=wrap;html=1;" parent="0CKxUs-SAW2n3wOCLj2P-1" vertex="1">
          <mxGeometry x="600" y="90" width="130" height="20" as="geometry" />
        </mxCell>
        <mxCell id="0CKxUs-SAW2n3wOCLj2P-47" style="edgeStyle=orthogonalEdgeStyle;rounded=0;orthogonalLoop=1;jettySize=auto;html=1;entryX=0.5;entryY=0;entryDx=0;entryDy=0;" parent="0CKxUs-SAW2n3wOCLj2P-1" source="0CKxUs-SAW2n3wOCLj2P-21" target="0CKxUs-SAW2n3wOCLj2P-46" edge="1">
          <mxGeometry relative="1" as="geometry" />
        </mxCell>
        <mxCell id="0CKxUs-SAW2n3wOCLj2P-48" value="InternalPipe.in" style="edgeLabel;html=1;align=center;verticalAlign=middle;resizable=0;points=[];" parent="0CKxUs-SAW2n3wOCLj2P-47" vertex="1" connectable="0">
          <mxGeometry x="-0.7354" y="3" relative="1" as="geometry">
            <mxPoint as="offset" />
          </mxGeometry>
        </mxCell>
        <mxCell id="0CKxUs-SAW2n3wOCLj2P-49" value="internalPipe.out" style="edgeLabel;html=1;align=center;verticalAlign=middle;resizable=0;points=[];" parent="0CKxUs-SAW2n3wOCLj2P-47" vertex="1" connectable="0">
          <mxGeometry x="0.7286" y="-1" relative="1" as="geometry">
            <mxPoint as="offset" />
          </mxGeometry>
        </mxCell>
        <mxCell id="0CKxUs-SAW2n3wOCLj2P-21" value="&lt;span&gt;AudioFrameConstructor&lt;/span&gt;" style="rounded=0;whiteSpace=wrap;html=1;" parent="0CKxUs-SAW2n3wOCLj2P-1" vertex="1">
          <mxGeometry x="600" y="110" width="130" height="20" as="geometry" />
        </mxCell>
        <mxCell id="0CKxUs-SAW2n3wOCLj2P-91" style="edgeStyle=orthogonalEdgeStyle;rounded=0;orthogonalLoop=1;jettySize=auto;html=1;entryX=1;entryY=0.5;entryDx=0;entryDy=0;" parent="0CKxUs-SAW2n3wOCLj2P-1" source="0CKxUs-SAW2n3wOCLj2P-22" target="0CKxUs-SAW2n3wOCLj2P-61" edge="1">
          <mxGeometry relative="1" as="geometry">
            <Array as="points">
              <mxPoint x="890" y="450" />
            </Array>
          </mxGeometry>
        </mxCell>
        <mxCell id="0CKxUs-SAW2n3wOCLj2P-92" style="edgeStyle=orthogonalEdgeStyle;rounded=0;orthogonalLoop=1;jettySize=auto;html=1;exitX=0.5;exitY=1;exitDx=0;exitDy=0;entryX=1;entryY=0.5;entryDx=0;entryDy=0;" parent="0CKxUs-SAW2n3wOCLj2P-1" source="0CKxUs-SAW2n3wOCLj2P-22" target="0CKxUs-SAW2n3wOCLj2P-56" edge="1">
          <mxGeometry relative="1" as="geometry" />
        </mxCell>
        <mxCell id="0CKxUs-SAW2n3wOCLj2P-104" value="InternalPipe.in" style="edgeLabel;html=1;align=center;verticalAlign=middle;resizable=0;points=[];" parent="0CKxUs-SAW2n3wOCLj2P-92" vertex="1" connectable="0">
          <mxGeometry x="-0.7643" y="4" relative="1" as="geometry">
            <mxPoint as="offset" />
          </mxGeometry>
        </mxCell>
        <mxCell id="0CKxUs-SAW2n3wOCLj2P-105" value="internalPipe.out" style="edgeLabel;html=1;align=center;verticalAlign=middle;resizable=0;points=[];" parent="0CKxUs-SAW2n3wOCLj2P-92" vertex="1" connectable="0">
          <mxGeometry x="-0.1429" y="-34" relative="1" as="geometry">
            <mxPoint x="-34" y="35" as="offset" />
          </mxGeometry>
        </mxCell>
        <mxCell id="0CKxUs-SAW2n3wOCLj2P-22" value="Video&lt;br&gt;Mixer" style="whiteSpace=wrap;html=1;aspect=fixed;" parent="0CKxUs-SAW2n3wOCLj2P-1" vertex="1">
          <mxGeometry x="860" y="310" width="60" height="60" as="geometry" />
        </mxCell>
        <mxCell id="0CKxUs-SAW2n3wOCLj2P-30" value="Stream" style="rounded=0;whiteSpace=wrap;html=1;" parent="0CKxUs-SAW2n3wOCLj2P-1" vertex="1">
          <mxGeometry x="550" y="130" width="50" height="40" as="geometry" />
        </mxCell>
        <mxCell id="0CKxUs-SAW2n3wOCLj2P-31" value="VideoFrameConstructor" style="rounded=0;whiteSpace=wrap;html=1;" parent="0CKxUs-SAW2n3wOCLj2P-1" vertex="1">
          <mxGeometry x="600" y="130" width="130" height="20" as="geometry" />
        </mxCell>
        <mxCell id="0CKxUs-SAW2n3wOCLj2P-32" value="&lt;span&gt;AudioFrameConstructor&lt;/span&gt;" style="rounded=0;whiteSpace=wrap;html=1;" parent="0CKxUs-SAW2n3wOCLj2P-1" vertex="1">
          <mxGeometry x="600" y="150" width="130" height="20" as="geometry" />
        </mxCell>
        <mxCell id="0CKxUs-SAW2n3wOCLj2P-33" value="&lt;span&gt;RtpConnection&lt;/span&gt;" style="rounded=0;whiteSpace=wrap;html=1;" parent="0CKxUs-SAW2n3wOCLj2P-1" vertex="1">
          <mxGeometry x="440" y="200" width="110" height="80" as="geometry" />
        </mxCell>
        <mxCell id="0CKxUs-SAW2n3wOCLj2P-34" value="Stream" style="rounded=0;whiteSpace=wrap;html=1;" parent="0CKxUs-SAW2n3wOCLj2P-1" vertex="1">
          <mxGeometry x="550" y="200" width="50" height="80" as="geometry" />
        </mxCell>
        <mxCell id="0CKxUs-SAW2n3wOCLj2P-45" style="edgeStyle=orthogonalEdgeStyle;rounded=0;orthogonalLoop=1;jettySize=auto;html=1;entryX=0.5;entryY=0;entryDx=0;entryDy=0;" parent="0CKxUs-SAW2n3wOCLj2P-1" source="0CKxUs-SAW2n3wOCLj2P-35" target="0CKxUs-SAW2n3wOCLj2P-22" edge="1">
          <mxGeometry relative="1" as="geometry" />
        </mxCell>
        <mxCell id="0CKxUs-SAW2n3wOCLj2P-50" value="internalPipe.out" style="edgeLabel;html=1;align=center;verticalAlign=middle;resizable=0;points=[];" parent="0CKxUs-SAW2n3wOCLj2P-45" vertex="1" connectable="0">
          <mxGeometry x="0.2154" y="-39" relative="1" as="geometry">
            <mxPoint as="offset" />
          </mxGeometry>
        </mxCell>
        <mxCell id="0CKxUs-SAW2n3wOCLj2P-35" value="VideoFrameConstructor" style="rounded=0;whiteSpace=wrap;html=1;" parent="0CKxUs-SAW2n3wOCLj2P-1" vertex="1">
          <mxGeometry x="600" y="200" width="130" height="40" as="geometry" />
        </mxCell>
        <mxCell id="0CKxUs-SAW2n3wOCLj2P-86" style="edgeStyle=orthogonalEdgeStyle;rounded=0;orthogonalLoop=1;jettySize=auto;html=1;" parent="0CKxUs-SAW2n3wOCLj2P-1" source="0CKxUs-SAW2n3wOCLj2P-36" edge="1">
          <mxGeometry relative="1" as="geometry">
            <mxPoint x="820" y="310" as="targetPoint" />
          </mxGeometry>
        </mxCell>
        <mxCell id="0CKxUs-SAW2n3wOCLj2P-36" value="&lt;span&gt;AudioFrameConstructor&lt;/span&gt;" style="rounded=0;whiteSpace=wrap;html=1;" parent="0CKxUs-SAW2n3wOCLj2P-1" vertex="1">
          <mxGeometry x="600" y="240" width="130" height="40" as="geometry" />
        </mxCell>
        <mxCell id="0CKxUs-SAW2n3wOCLj2P-89" style="edgeStyle=orthogonalEdgeStyle;rounded=0;orthogonalLoop=1;jettySize=auto;html=1;entryX=1;entryY=0.5;entryDx=0;entryDy=0;exitX=0.5;exitY=1;exitDx=0;exitDy=0;" parent="0CKxUs-SAW2n3wOCLj2P-1" source="0CKxUs-SAW2n3wOCLj2P-46" target="0CKxUs-SAW2n3wOCLj2P-54" edge="1">
          <mxGeometry relative="1" as="geometry" />
        </mxCell>
        <mxCell id="0CKxUs-SAW2n3wOCLj2P-90" style="edgeStyle=orthogonalEdgeStyle;rounded=0;orthogonalLoop=1;jettySize=auto;html=1;exitX=0.5;exitY=1;exitDx=0;exitDy=0;entryX=1;entryY=0.5;entryDx=0;entryDy=0;" parent="0CKxUs-SAW2n3wOCLj2P-1" source="0CKxUs-SAW2n3wOCLj2P-46" target="0CKxUs-SAW2n3wOCLj2P-64" edge="1">
          <mxGeometry relative="1" as="geometry" />
        </mxCell>
        <mxCell id="0CKxUs-SAW2n3wOCLj2P-102" value="InternalPipe.in" style="edgeLabel;html=1;align=center;verticalAlign=middle;resizable=0;points=[];" parent="0CKxUs-SAW2n3wOCLj2P-90" vertex="1" connectable="0">
          <mxGeometry x="-0.8522" y="1" relative="1" as="geometry">
            <mxPoint as="offset" />
          </mxGeometry>
        </mxCell>
        <mxCell id="0CKxUs-SAW2n3wOCLj2P-103" value="InternalPipe.out" style="edgeLabel;html=1;align=center;verticalAlign=middle;resizable=0;points=[];" parent="0CKxUs-SAW2n3wOCLj2P-90" vertex="1" connectable="0">
          <mxGeometry x="0.2174" y="-34" relative="1" as="geometry">
            <mxPoint x="-34" y="37" as="offset" />
          </mxGeometry>
        </mxCell>
        <mxCell id="0CKxUs-SAW2n3wOCLj2P-46" value="Audio&lt;br&gt;Mixer" style="whiteSpace=wrap;html=1;aspect=fixed;" parent="0CKxUs-SAW2n3wOCLj2P-1" vertex="1">
          <mxGeometry x="790" y="310" width="60" height="60" as="geometry" />
        </mxCell>
        <mxCell id="0CKxUs-SAW2n3wOCLj2P-87" value="" style="group" parent="0CKxUs-SAW2n3wOCLj2P-1" vertex="1" connectable="0">
          <mxGeometry x="440" y="440" width="290" height="80" as="geometry" />
        </mxCell>
        <mxCell id="0CKxUs-SAW2n3wOCLj2P-51" value="&lt;span&gt;RtpConnection&lt;/span&gt;" style="rounded=0;whiteSpace=wrap;html=1;" parent="0CKxUs-SAW2n3wOCLj2P-87" vertex="1">
          <mxGeometry width="110" height="80" as="geometry" />
        </mxCell>
        <mxCell id="0CKxUs-SAW2n3wOCLj2P-52" value="Stream" style="rounded=0;whiteSpace=wrap;html=1;" parent="0CKxUs-SAW2n3wOCLj2P-87" vertex="1">
          <mxGeometry x="110" width="50" height="40" as="geometry" />
        </mxCell>
        <mxCell id="0CKxUs-SAW2n3wOCLj2P-54" value="&lt;span&gt;AudioFrame&lt;/span&gt;Packetizer" style="rounded=0;whiteSpace=wrap;html=1;" parent="0CKxUs-SAW2n3wOCLj2P-87" vertex="1">
          <mxGeometry x="160" y="20" width="130" height="20" as="geometry" />
        </mxCell>
        <mxCell id="0CKxUs-SAW2n3wOCLj2P-55" value="Stream" style="rounded=0;whiteSpace=wrap;html=1;" parent="0CKxUs-SAW2n3wOCLj2P-87" vertex="1">
          <mxGeometry x="110" y="40" width="50" height="40" as="geometry" />
        </mxCell>
        <mxCell id="0CKxUs-SAW2n3wOCLj2P-56" value="VideoFramePacketizer" style="rounded=0;whiteSpace=wrap;html=1;" parent="0CKxUs-SAW2n3wOCLj2P-87" vertex="1">
          <mxGeometry x="160" y="40" width="130" height="20" as="geometry" />
        </mxCell>
        <mxCell id="0CKxUs-SAW2n3wOCLj2P-61" value="VideoFramePacketizer" style="rounded=0;whiteSpace=wrap;html=1;" parent="0CKxUs-SAW2n3wOCLj2P-87" vertex="1">
          <mxGeometry x="160" width="130" height="20" as="geometry" />
        </mxCell>
        <mxCell id="0CKxUs-SAW2n3wOCLj2P-64" value="&lt;span&gt;AudioFrame&lt;/span&gt;Packetizer" style="rounded=0;whiteSpace=wrap;html=1;" parent="0CKxUs-SAW2n3wOCLj2P-87" vertex="1">
          <mxGeometry x="160" y="60" width="130" height="20" as="geometry" />
        </mxCell>
        <mxCell id="0CKxUs-SAW2n3wOCLj2P-95" value="consumer" style="rounded=0;whiteSpace=wrap;html=1;" parent="0CKxUs-SAW2n3wOCLj2P-1" vertex="1">
          <mxGeometry x="180" y="80" width="60" height="20" as="geometry" />
        </mxCell>
        <mxCell id="0CKxUs-SAW2n3wOCLj2P-96" value="consumer" style="rounded=0;whiteSpace=wrap;html=1;" parent="0CKxUs-SAW2n3wOCLj2P-1" vertex="1">
          <mxGeometry x="180" y="140" width="60" height="20" as="geometry" />
        </mxCell>
        <mxCell id="0CKxUs-SAW2n3wOCLj2P-97" value="consumer" style="rounded=0;whiteSpace=wrap;html=1;" parent="0CKxUs-SAW2n3wOCLj2P-1" vertex="1">
          <mxGeometry x="180" y="240" width="60" height="20" as="geometry" />
        </mxCell>
        <mxCell id="0CKxUs-SAW2n3wOCLj2P-98" value="consumer" style="rounded=0;whiteSpace=wrap;html=1;" parent="0CKxUs-SAW2n3wOCLj2P-1" vertex="1">
          <mxGeometry x="180" y="220" width="60" height="20" as="geometry" />
        </mxCell>
        <mxCell id="0CKxUs-SAW2n3wOCLj2P-99" value="" style="shape=flexArrow;endArrow=classic;html=1;entryX=0;entryY=0.222;entryDx=0;entryDy=0;entryPerimeter=0;exitX=1.009;exitY=0.221;exitDx=0;exitDy=0;exitPerimeter=0;" parent="0CKxUs-SAW2n3wOCLj2P-1" edge="1">
          <mxGeometry width="50" height="50" relative="1" as="geometry">
            <mxPoint x="240.00000000000003" y="240.43999999999994" as="sourcePoint" />
            <mxPoint x="438.02" y="240.0000000000001" as="targetPoint" />
          </mxGeometry>
        </mxCell>
        <mxCell id="0CKxUs-SAW2n3wOCLj2P-100" value="PlainTransport" style="edgeLabel;html=1;align=center;verticalAlign=middle;resizable=0;points=[];" parent="0CKxUs-SAW2n3wOCLj2P-99" vertex="1" connectable="0">
          <mxGeometry x="-0.0625" y="1" relative="1" as="geometry">
            <mxPoint as="offset" />
          </mxGeometry>
        </mxCell>
        <mxCell id="0CKxUs-SAW2n3wOCLj2P-107" value="" style="shape=flexArrow;endArrow=classic;html=1;exitX=0;exitY=0.5;exitDx=0;exitDy=0;" parent="0CKxUs-SAW2n3wOCLj2P-1" source="0CKxUs-SAW2n3wOCLj2P-51" edge="1">
          <mxGeometry width="50" height="50" relative="1" as="geometry">
            <mxPoint x="460" y="310" as="sourcePoint" />
            <mxPoint x="241" y="480" as="targetPoint" />
          </mxGeometry>
        </mxCell>
        <mxCell id="0CKxUs-SAW2n3wOCLj2P-108" value="PlainTransport" style="edgeLabel;html=1;align=center;verticalAlign=middle;resizable=0;points=[];" parent="0CKxUs-SAW2n3wOCLj2P-107" vertex="1" connectable="0">
          <mxGeometry x="0.0452" y="-1" relative="1" as="geometry">
            <mxPoint as="offset" />
          </mxGeometry>
        </mxCell>
        <mxCell id="0CKxUs-SAW2n3wOCLj2P-143" style="edgeStyle=orthogonalEdgeStyle;rounded=0;orthogonalLoop=1;jettySize=auto;html=1;entryX=1;entryY=0.5;entryDx=0;entryDy=0;" parent="0CKxUs-SAW2n3wOCLj2P-1" source="0CKxUs-SAW2n3wOCLj2P-109" target="0CKxUs-SAW2n3wOCLj2P-126" edge="1">
          <mxGeometry relative="1" as="geometry" />
        </mxCell>
        <mxCell id="0CKxUs-SAW2n3wOCLj2P-109" value="producer" style="rounded=0;whiteSpace=wrap;html=1;" parent="0CKxUs-SAW2n3wOCLj2P-1" vertex="1">
          <mxGeometry x="180" y="440" width="60" height="20" as="geometry" />
        </mxCell>
        <mxCell id="0CKxUs-SAW2n3wOCLj2P-144" style="edgeStyle=orthogonalEdgeStyle;rounded=0;orthogonalLoop=1;jettySize=auto;html=1;entryX=1;entryY=0.5;entryDx=0;entryDy=0;" parent="0CKxUs-SAW2n3wOCLj2P-1" source="0CKxUs-SAW2n3wOCLj2P-110" target="0CKxUs-SAW2n3wOCLj2P-127" edge="1">
          <mxGeometry relative="1" as="geometry" />
        </mxCell>
        <mxCell id="0CKxUs-SAW2n3wOCLj2P-110" value="producer" style="rounded=0;whiteSpace=wrap;html=1;" parent="0CKxUs-SAW2n3wOCLj2P-1" vertex="1">
          <mxGeometry x="180" y="460" width="60" height="20" as="geometry" />
        </mxCell>
        <mxCell id="0CKxUs-SAW2n3wOCLj2P-145" style="edgeStyle=orthogonalEdgeStyle;rounded=0;orthogonalLoop=1;jettySize=auto;html=1;entryX=1;entryY=0.5;entryDx=0;entryDy=0;" parent="0CKxUs-SAW2n3wOCLj2P-1" source="0CKxUs-SAW2n3wOCLj2P-111" target="0CKxUs-SAW2n3wOCLj2P-128" edge="1">
          <mxGeometry relative="1" as="geometry" />
        </mxCell>
        <mxCell id="0CKxUs-SAW2n3wOCLj2P-111" value="producer" style="rounded=0;whiteSpace=wrap;html=1;" parent="0CKxUs-SAW2n3wOCLj2P-1" vertex="1">
          <mxGeometry x="180" y="480" width="60" height="20" as="geometry" />
        </mxCell>
        <mxCell id="0CKxUs-SAW2n3wOCLj2P-146" style="edgeStyle=orthogonalEdgeStyle;rounded=0;orthogonalLoop=1;jettySize=auto;html=1;entryX=1;entryY=0.5;entryDx=0;entryDy=0;" parent="0CKxUs-SAW2n3wOCLj2P-1" source="0CKxUs-SAW2n3wOCLj2P-112" target="0CKxUs-SAW2n3wOCLj2P-129" edge="1">
          <mxGeometry relative="1" as="geometry" />
        </mxCell>
        <mxCell id="0CKxUs-SAW2n3wOCLj2P-112" value="producer" style="rounded=0;whiteSpace=wrap;html=1;" parent="0CKxUs-SAW2n3wOCLj2P-1" vertex="1">
          <mxGeometry x="180" y="500" width="60" height="20" as="geometry" />
        </mxCell>
        <mxCell id="0CKxUs-SAW2n3wOCLj2P-113" value="Client" style="rounded=0;whiteSpace=wrap;html=1;" parent="0CKxUs-SAW2n3wOCLj2P-1" vertex="1">
          <mxGeometry x="-310" y="80" width="190" height="80" as="geometry" />
        </mxCell>
        <mxCell id="0CKxUs-SAW2n3wOCLj2P-130" value="" style="edgeStyle=orthogonalEdgeStyle;rounded=0;orthogonalLoop=1;jettySize=auto;html=1;" parent="0CKxUs-SAW2n3wOCLj2P-1" source="0CKxUs-SAW2n3wOCLj2P-114" target="0CKxUs-SAW2n3wOCLj2P-95" edge="1">
          <mxGeometry relative="1" as="geometry" />
        </mxCell>
        <mxCell id="0CKxUs-SAW2n3wOCLj2P-114" value="producer" style="rounded=0;whiteSpace=wrap;html=1;" parent="0CKxUs-SAW2n3wOCLj2P-1" vertex="1">
          <mxGeometry x="20" y="80" width="60" height="20" as="geometry" />
        </mxCell>
        <mxCell id="0CKxUs-SAW2n3wOCLj2P-132" style="edgeStyle=orthogonalEdgeStyle;rounded=0;orthogonalLoop=1;jettySize=auto;html=1;entryX=0;entryY=0.5;entryDx=0;entryDy=0;" parent="0CKxUs-SAW2n3wOCLj2P-1" source="0CKxUs-SAW2n3wOCLj2P-115" target="0CKxUs-SAW2n3wOCLj2P-8" edge="1">
          <mxGeometry relative="1" as="geometry" />
        </mxCell>
        <mxCell id="0CKxUs-SAW2n3wOCLj2P-115" value="producer" style="rounded=0;whiteSpace=wrap;html=1;" parent="0CKxUs-SAW2n3wOCLj2P-1" vertex="1">
          <mxGeometry x="20" y="100" width="60" height="20" as="geometry" />
        </mxCell>
        <mxCell id="0CKxUs-SAW2n3wOCLj2P-134" style="edgeStyle=orthogonalEdgeStyle;rounded=0;orthogonalLoop=1;jettySize=auto;html=1;" parent="0CKxUs-SAW2n3wOCLj2P-1" source="0CKxUs-SAW2n3wOCLj2P-116" target="0CKxUs-SAW2n3wOCLj2P-96" edge="1">
          <mxGeometry relative="1" as="geometry" />
        </mxCell>
        <mxCell id="0CKxUs-SAW2n3wOCLj2P-116" value="producer" style="rounded=0;whiteSpace=wrap;html=1;" parent="0CKxUs-SAW2n3wOCLj2P-1" vertex="1">
          <mxGeometry x="20" y="140" width="60" height="20" as="geometry" />
        </mxCell>
        <mxCell id="0CKxUs-SAW2n3wOCLj2P-133" style="edgeStyle=orthogonalEdgeStyle;rounded=0;orthogonalLoop=1;jettySize=auto;html=1;entryX=0;entryY=0.5;entryDx=0;entryDy=0;" parent="0CKxUs-SAW2n3wOCLj2P-1" source="0CKxUs-SAW2n3wOCLj2P-117" target="0CKxUs-SAW2n3wOCLj2P-9" edge="1">
          <mxGeometry relative="1" as="geometry" />
        </mxCell>
        <mxCell id="0CKxUs-SAW2n3wOCLj2P-117" value="producer" style="rounded=0;whiteSpace=wrap;html=1;" parent="0CKxUs-SAW2n3wOCLj2P-1" vertex="1">
          <mxGeometry x="20" y="120" width="60" height="20" as="geometry" />
        </mxCell>
        <mxCell id="0CKxUs-SAW2n3wOCLj2P-118" value="" style="shape=flexArrow;endArrow=classic;html=1;exitX=1;exitY=0.5;exitDx=0;exitDy=0;entryX=0;entryY=0;entryDx=0;entryDy=0;" parent="0CKxUs-SAW2n3wOCLj2P-1" source="0CKxUs-SAW2n3wOCLj2P-113" target="0CKxUs-SAW2n3wOCLj2P-117" edge="1">
          <mxGeometry width="50" height="50" relative="1" as="geometry">
            <mxPoint x="-110" y="110" as="sourcePoint" />
            <mxPoint x="-60" y="60" as="targetPoint" />
          </mxGeometry>
        </mxCell>
        <mxCell id="0CKxUs-SAW2n3wOCLj2P-120" value="WebRTCTransport" style="edgeLabel;html=1;align=center;verticalAlign=middle;resizable=0;points=[];" parent="0CKxUs-SAW2n3wOCLj2P-118" vertex="1" connectable="0">
          <mxGeometry y="-2" relative="1" as="geometry">
            <mxPoint x="5" y="-2" as="offset" />
          </mxGeometry>
        </mxCell>
        <mxCell id="0CKxUs-SAW2n3wOCLj2P-121" value="Client" style="rounded=0;whiteSpace=wrap;html=1;" parent="0CKxUs-SAW2n3wOCLj2P-1" vertex="1">
          <mxGeometry x="-310" y="390" width="190" height="80" as="geometry" />
        </mxCell>
        <mxCell id="0CKxUs-SAW2n3wOCLj2P-123" value="" style="shape=flexArrow;endArrow=classic;html=1;entryX=1;entryY=0.75;entryDx=0;entryDy=0;exitX=0;exitY=0.5;exitDx=0;exitDy=0;" parent="0CKxUs-SAW2n3wOCLj2P-1" source="0CKxUs-SAW2n3wOCLj2P-126" target="0CKxUs-SAW2n3wOCLj2P-121" edge="1">
          <mxGeometry width="50" height="50" relative="1" as="geometry">
            <mxPoint x="10" y="460" as="sourcePoint" />
            <mxPoint x="70" y="250" as="targetPoint" />
          </mxGeometry>
        </mxCell>
        <mxCell id="0CKxUs-SAW2n3wOCLj2P-124" value="WebRTCTransport" style="edgeLabel;html=1;align=center;verticalAlign=middle;resizable=0;points=[];" parent="0CKxUs-SAW2n3wOCLj2P-123" vertex="1" connectable="0">
          <mxGeometry x="-0.0713" y="-1" relative="1" as="geometry">
            <mxPoint as="offset" />
          </mxGeometry>
        </mxCell>
        <mxCell id="0CKxUs-SAW2n3wOCLj2P-126" value="consumer" style="rounded=0;whiteSpace=wrap;html=1;" parent="0CKxUs-SAW2n3wOCLj2P-1" vertex="1">
          <mxGeometry x="20" y="440" width="60" height="20" as="geometry" />
        </mxCell>
        <mxCell id="0CKxUs-SAW2n3wOCLj2P-127" value="consumer" style="rounded=0;whiteSpace=wrap;html=1;" parent="0CKxUs-SAW2n3wOCLj2P-1" vertex="1">
          <mxGeometry x="20" y="460" width="60" height="20" as="geometry" />
        </mxCell>
        <mxCell id="0CKxUs-SAW2n3wOCLj2P-128" value="consumer" style="rounded=0;whiteSpace=wrap;html=1;" parent="0CKxUs-SAW2n3wOCLj2P-1" vertex="1">
          <mxGeometry x="20" y="480" width="60" height="20" as="geometry" />
        </mxCell>
        <mxCell id="0CKxUs-SAW2n3wOCLj2P-129" value="consumer" style="rounded=0;whiteSpace=wrap;html=1;" parent="0CKxUs-SAW2n3wOCLj2P-1" vertex="1">
          <mxGeometry x="20" y="500" width="60" height="20" as="geometry" />
        </mxCell>
        <mxCell id="0CKxUs-SAW2n3wOCLj2P-135" value="Client" style="rounded=0;whiteSpace=wrap;html=1;" parent="0CKxUs-SAW2n3wOCLj2P-1" vertex="1">
          <mxGeometry x="-310" y="200" width="190" height="80" as="geometry" />
        </mxCell>
        <mxCell id="0CKxUs-SAW2n3wOCLj2P-136" value="" style="shape=flexArrow;endArrow=classic;html=1;exitX=1;exitY=0.5;exitDx=0;exitDy=0;entryX=0;entryY=0;entryDx=0;entryDy=0;" parent="0CKxUs-SAW2n3wOCLj2P-1" edge="1">
          <mxGeometry width="50" height="50" relative="1" as="geometry">
            <mxPoint x="-120" y="240" as="sourcePoint" />
            <mxPoint x="20" y="240" as="targetPoint" />
          </mxGeometry>
        </mxCell>
        <mxCell id="0CKxUs-SAW2n3wOCLj2P-137" value="WebRTCTransport" style="edgeLabel;html=1;align=center;verticalAlign=middle;resizable=0;points=[];" parent="0CKxUs-SAW2n3wOCLj2P-136" vertex="1" connectable="0">
          <mxGeometry y="-2" relative="1" as="geometry">
            <mxPoint x="5" y="-2" as="offset" />
          </mxGeometry>
        </mxCell>
        <mxCell id="0CKxUs-SAW2n3wOCLj2P-140" style="edgeStyle=orthogonalEdgeStyle;rounded=0;orthogonalLoop=1;jettySize=auto;html=1;entryX=0;entryY=0.5;entryDx=0;entryDy=0;" parent="0CKxUs-SAW2n3wOCLj2P-1" source="0CKxUs-SAW2n3wOCLj2P-138" target="0CKxUs-SAW2n3wOCLj2P-98" edge="1">
          <mxGeometry relative="1" as="geometry" />
        </mxCell>
        <mxCell id="0CKxUs-SAW2n3wOCLj2P-138" value="producer" style="rounded=0;whiteSpace=wrap;html=1;" parent="0CKxUs-SAW2n3wOCLj2P-1" vertex="1">
          <mxGeometry x="20" y="220" width="60" height="20" as="geometry" />
        </mxCell>
        <mxCell id="0CKxUs-SAW2n3wOCLj2P-141" style="edgeStyle=orthogonalEdgeStyle;rounded=0;orthogonalLoop=1;jettySize=auto;html=1;entryX=0;entryY=0.5;entryDx=0;entryDy=0;" parent="0CKxUs-SAW2n3wOCLj2P-1" source="0CKxUs-SAW2n3wOCLj2P-139" target="0CKxUs-SAW2n3wOCLj2P-97" edge="1">
          <mxGeometry relative="1" as="geometry" />
        </mxCell>
        <mxCell id="0CKxUs-SAW2n3wOCLj2P-139" value="producer" style="rounded=0;whiteSpace=wrap;html=1;" parent="0CKxUs-SAW2n3wOCLj2P-1" vertex="1">
          <mxGeometry x="20" y="240" width="60" height="20" as="geometry" />
        </mxCell>
        <mxCell id="0CKxUs-SAW2n3wOCLj2P-147" value="Client" style="rounded=0;whiteSpace=wrap;html=1;" parent="0CKxUs-SAW2n3wOCLj2P-1" vertex="1">
          <mxGeometry x="-310" y="490" width="190" height="80" as="geometry" />
        </mxCell>
        <mxCell id="0CKxUs-SAW2n3wOCLj2P-150" value="" style="shape=flexArrow;endArrow=classic;html=1;entryX=1;entryY=0.25;entryDx=0;entryDy=0;exitX=0;exitY=0.5;exitDx=0;exitDy=0;" parent="0CKxUs-SAW2n3wOCLj2P-1" target="0CKxUs-SAW2n3wOCLj2P-147" edge="1">
          <mxGeometry width="50" height="50" relative="1" as="geometry">
            <mxPoint x="20" y="509.5" as="sourcePoint" />
            <mxPoint x="-120" y="509.5" as="targetPoint" />
          </mxGeometry>
        </mxCell>
        <mxCell id="0CKxUs-SAW2n3wOCLj2P-151" value="WebRTCTransport" style="edgeLabel;html=1;align=center;verticalAlign=middle;resizable=0;points=[];" parent="0CKxUs-SAW2n3wOCLj2P-150" vertex="1" connectable="0">
          <mxGeometry x="-0.0713" y="-1" relative="1" as="geometry">
            <mxPoint as="offset" />
          </mxGeometry>
        </mxCell>
      </root>
    </mxGraphModel>
  </diagram>
  <diagram id="Mi04Gfs2j5SoGGmeAgpS" name="Page-5">
    <mxGraphModel dx="798" dy="1763" grid="1" gridSize="10" guides="1" tooltips="1" connect="1" arrows="1" fold="1" page="1" pageScale="1" pageWidth="827" pageHeight="1169" math="0" shadow="0">
      <root>
        <mxCell id="EzjTsVIFKqa_C2gBCvGv-0" />
        <mxCell id="EzjTsVIFKqa_C2gBCvGv-1" parent="EzjTsVIFKqa_C2gBCvGv-0" />
        <mxCell id="EzjTsVIFKqa_C2gBCvGv-2" value="Node" style="rounded=1;whiteSpace=wrap;html=1;verticalAlign=top;" parent="EzjTsVIFKqa_C2gBCvGv-1" vertex="1">
          <mxGeometry x="80" y="-10" width="560" height="170" as="geometry" />
        </mxCell>
        <mxCell id="EzjTsVIFKqa_C2gBCvGv-3" value="" style="endArrow=classic;startArrow=classic;html=1;exitX=0.5;exitY=0;exitDx=0;exitDy=0;entryX=0.143;entryY=0.988;entryDx=0;entryDy=0;entryPerimeter=0;" parent="EzjTsVIFKqa_C2gBCvGv-1" source="EzjTsVIFKqa_C2gBCvGv-5" target="EzjTsVIFKqa_C2gBCvGv-2" edge="1">
          <mxGeometry width="50" height="50" relative="1" as="geometry">
            <mxPoint x="400" y="230" as="sourcePoint" />
            <mxPoint x="160" y="165" as="targetPoint" />
          </mxGeometry>
        </mxCell>
        <mxCell id="EzjTsVIFKqa_C2gBCvGv-4" value="UnixSocket(json)" style="edgeLabel;html=1;align=center;verticalAlign=middle;resizable=0;points=[];" parent="EzjTsVIFKqa_C2gBCvGv-3" vertex="1" connectable="0">
          <mxGeometry x="0.15" relative="1" as="geometry">
            <mxPoint as="offset" />
          </mxGeometry>
        </mxCell>
        <mxCell id="EzjTsVIFKqa_C2gBCvGv-5" value="Worker" style="rounded=0;whiteSpace=wrap;html=1;verticalAlign=top;" parent="EzjTsVIFKqa_C2gBCvGv-1" vertex="1">
          <mxGeometry x="80" y="240" width="160" height="100" as="geometry" />
        </mxCell>
        <mxCell id="EzjTsVIFKqa_C2gBCvGv-6" value="Mixer" style="rounded=1;whiteSpace=wrap;html=1;" parent="EzjTsVIFKqa_C2gBCvGv-1" vertex="1">
          <mxGeometry x="90" y="280" width="40" height="40" as="geometry" />
        </mxCell>
        <mxCell id="EzjTsVIFKqa_C2gBCvGv-7" value="Output" style="rounded=1;whiteSpace=wrap;html=1;" parent="EzjTsVIFKqa_C2gBCvGv-1" vertex="1">
          <mxGeometry x="190" y="280" width="40" height="40" as="geometry" />
        </mxCell>
        <mxCell id="EzjTsVIFKqa_C2gBCvGv-8" value="Input" style="rounded=1;whiteSpace=wrap;html=1;" parent="EzjTsVIFKqa_C2gBCvGv-1" vertex="1">
          <mxGeometry x="140" y="280" width="40" height="40" as="geometry" />
        </mxCell>
        <mxCell id="EzjTsVIFKqa_C2gBCvGv-9" value="" style="endArrow=classic;startArrow=classic;html=1;exitX=0.5;exitY=0;exitDx=0;exitDy=0;entryX=0.143;entryY=0.988;entryDx=0;entryDy=0;entryPerimeter=0;" parent="EzjTsVIFKqa_C2gBCvGv-1" source="EzjTsVIFKqa_C2gBCvGv-11" edge="1">
          <mxGeometry width="50" height="50" relative="1" as="geometry">
            <mxPoint x="600" y="230" as="sourcePoint" />
            <mxPoint x="360.0799999999999" y="159.03999999999996" as="targetPoint" />
          </mxGeometry>
        </mxCell>
        <mxCell id="EzjTsVIFKqa_C2gBCvGv-10" value="UnixSocket(json)" style="edgeLabel;html=1;align=center;verticalAlign=middle;resizable=0;points=[];" parent="EzjTsVIFKqa_C2gBCvGv-9" vertex="1" connectable="0">
          <mxGeometry x="0.15" relative="1" as="geometry">
            <mxPoint as="offset" />
          </mxGeometry>
        </mxCell>
        <mxCell id="EzjTsVIFKqa_C2gBCvGv-11" value="Worker" style="rounded=0;whiteSpace=wrap;html=1;verticalAlign=top;" parent="EzjTsVIFKqa_C2gBCvGv-1" vertex="1">
          <mxGeometry x="280" y="240" width="160" height="100" as="geometry" />
        </mxCell>
        <mxCell id="EzjTsVIFKqa_C2gBCvGv-12" value="Mixer" style="rounded=1;whiteSpace=wrap;html=1;" parent="EzjTsVIFKqa_C2gBCvGv-1" vertex="1">
          <mxGeometry x="290" y="280" width="40" height="40" as="geometry" />
        </mxCell>
        <mxCell id="EzjTsVIFKqa_C2gBCvGv-13" value="Output" style="rounded=1;whiteSpace=wrap;html=1;" parent="EzjTsVIFKqa_C2gBCvGv-1" vertex="1">
          <mxGeometry x="390" y="280" width="40" height="40" as="geometry" />
        </mxCell>
        <mxCell id="EzjTsVIFKqa_C2gBCvGv-14" value="Input" style="rounded=1;whiteSpace=wrap;html=1;" parent="EzjTsVIFKqa_C2gBCvGv-1" vertex="1">
          <mxGeometry x="340" y="280" width="40" height="40" as="geometry" />
        </mxCell>
        <mxCell id="EzjTsVIFKqa_C2gBCvGv-15" value="" style="endArrow=classic;startArrow=classic;html=1;exitX=0.5;exitY=0;exitDx=0;exitDy=0;entryX=0.143;entryY=0.988;entryDx=0;entryDy=0;entryPerimeter=0;" parent="EzjTsVIFKqa_C2gBCvGv-1" source="EzjTsVIFKqa_C2gBCvGv-17" edge="1">
          <mxGeometry width="50" height="50" relative="1" as="geometry">
            <mxPoint x="800" y="230" as="sourcePoint" />
            <mxPoint x="560.0799999999999" y="159.03999999999996" as="targetPoint" />
          </mxGeometry>
        </mxCell>
        <mxCell id="EzjTsVIFKqa_C2gBCvGv-16" value="UnixSocket(json)" style="edgeLabel;html=1;align=center;verticalAlign=middle;resizable=0;points=[];" parent="EzjTsVIFKqa_C2gBCvGv-15" vertex="1" connectable="0">
          <mxGeometry x="0.15" relative="1" as="geometry">
            <mxPoint as="offset" />
          </mxGeometry>
        </mxCell>
        <mxCell id="EzjTsVIFKqa_C2gBCvGv-17" value="Worker" style="rounded=0;whiteSpace=wrap;html=1;verticalAlign=top;" parent="EzjTsVIFKqa_C2gBCvGv-1" vertex="1">
          <mxGeometry x="480" y="240" width="160" height="100" as="geometry" />
        </mxCell>
        <mxCell id="EzjTsVIFKqa_C2gBCvGv-18" value="Mixer" style="rounded=1;whiteSpace=wrap;html=1;" parent="EzjTsVIFKqa_C2gBCvGv-1" vertex="1">
          <mxGeometry x="490" y="280" width="40" height="40" as="geometry" />
        </mxCell>
        <mxCell id="EzjTsVIFKqa_C2gBCvGv-19" value="Output" style="rounded=1;whiteSpace=wrap;html=1;" parent="EzjTsVIFKqa_C2gBCvGv-1" vertex="1">
          <mxGeometry x="590" y="280" width="40" height="40" as="geometry" />
        </mxCell>
        <mxCell id="EzjTsVIFKqa_C2gBCvGv-20" value="Input" style="rounded=1;whiteSpace=wrap;html=1;" parent="EzjTsVIFKqa_C2gBCvGv-1" vertex="1">
          <mxGeometry x="540" y="280" width="40" height="40" as="geometry" />
        </mxCell>
        <mxCell id="EzjTsVIFKqa_C2gBCvGv-21" value="media" style="rounded=0;whiteSpace=wrap;html=1;align=center;verticalAlign=top;" parent="EzjTsVIFKqa_C2gBCvGv-1" vertex="1">
          <mxGeometry x="100" y="90" width="520" height="60" as="geometry" />
        </mxCell>
        <mxCell id="EzjTsVIFKqa_C2gBCvGv-22" value="Mixer" style="rounded=1;whiteSpace=wrap;html=1;" parent="EzjTsVIFKqa_C2gBCvGv-1" vertex="1">
          <mxGeometry x="110" y="100" width="40" height="40" as="geometry" />
        </mxCell>
        <mxCell id="EzjTsVIFKqa_C2gBCvGv-23" value="UDP&lt;br&gt;Input" style="rounded=1;whiteSpace=wrap;html=1;" parent="EzjTsVIFKqa_C2gBCvGv-1" vertex="1">
          <mxGeometry x="160" y="100" width="40" height="40" as="geometry" />
        </mxCell>
        <mxCell id="EzjTsVIFKqa_C2gBCvGv-24" value="RTP&lt;br&gt;Input" style="rounded=1;whiteSpace=wrap;html=1;" parent="EzjTsVIFKqa_C2gBCvGv-1" vertex="1">
          <mxGeometry x="210" y="100" width="40" height="40" as="geometry" />
        </mxCell>
        <mxCell id="EzjTsVIFKqa_C2gBCvGv-25" value="" style="endArrow=none;dashed=1;html=1;dashPattern=1 3;strokeWidth=2;" parent="EzjTsVIFKqa_C2gBCvGv-1" edge="1">
          <mxGeometry width="50" height="50" relative="1" as="geometry">
            <mxPoint x="270" y="119.5" as="sourcePoint" />
            <mxPoint x="350" y="119.5" as="targetPoint" />
          </mxGeometry>
        </mxCell>
        <mxCell id="EzjTsVIFKqa_C2gBCvGv-26" value="Signal" style="rounded=1;whiteSpace=wrap;html=1;align=center;" parent="EzjTsVIFKqa_C2gBCvGv-1" vertex="1">
          <mxGeometry x="280" y="-180" width="160" height="60" as="geometry" />
        </mxCell>
        <mxCell id="EzjTsVIFKqa_C2gBCvGv-27" value="" style="endArrow=classic;startArrow=classic;html=1;entryX=0.5;entryY=1;entryDx=0;entryDy=0;" parent="EzjTsVIFKqa_C2gBCvGv-1" target="EzjTsVIFKqa_C2gBCvGv-26" edge="1">
          <mxGeometry width="50" height="50" relative="1" as="geometry">
            <mxPoint x="360" y="-11" as="sourcePoint" />
            <mxPoint x="450" y="-130" as="targetPoint" />
          </mxGeometry>
        </mxCell>
        <mxCell id="EzjTsVIFKqa_C2gBCvGv-28" value="ws" style="edgeLabel;html=1;align=center;verticalAlign=middle;resizable=0;points=[];" parent="EzjTsVIFKqa_C2gBCvGv-27" vertex="1" connectable="0">
          <mxGeometry x="0.0336" y="1" relative="1" as="geometry">
            <mxPoint as="offset" />
          </mxGeometry>
        </mxCell>
        <mxCell id="EzjTsVIFKqa_C2gBCvGv-29" value="Signal" style="rounded=0;whiteSpace=wrap;html=1;align=center;" parent="EzjTsVIFKqa_C2gBCvGv-1" vertex="1">
          <mxGeometry x="305" y="10" width="110" height="60" as="geometry" />
        </mxCell>
        <mxCell id="EzjTsVIFKqa_C2gBCvGv-30" value="Script" style="rounded=0;whiteSpace=wrap;html=1;align=center;" parent="EzjTsVIFKqa_C2gBCvGv-1" vertex="1">
          <mxGeometry x="505" y="10" width="110" height="60" as="geometry" />
        </mxCell>
        <mxCell id="EzjTsVIFKqa_C2gBCvGv-31" value="" style="endArrow=classic;html=1;exitX=1;exitY=0.5;exitDx=0;exitDy=0;entryX=0;entryY=0.5;entryDx=0;entryDy=0;" parent="EzjTsVIFKqa_C2gBCvGv-1" source="EzjTsVIFKqa_C2gBCvGv-29" target="EzjTsVIFKqa_C2gBCvGv-30" edge="1">
          <mxGeometry width="50" height="50" relative="1" as="geometry">
            <mxPoint x="400" y="60" as="sourcePoint" />
            <mxPoint x="450" y="10" as="targetPoint" />
          </mxGeometry>
        </mxCell>
        <mxCell id="EzjTsVIFKqa_C2gBCvGv-32" value="Script server" style="rounded=1;whiteSpace=wrap;html=1;align=center;" parent="EzjTsVIFKqa_C2gBCvGv-1" vertex="1">
          <mxGeometry x="480" y="-180" width="160" height="60" as="geometry" />
        </mxCell>
        <mxCell id="EzjTsVIFKqa_C2gBCvGv-33" value="" style="endArrow=classic;startArrow=classic;html=1;entryX=0.5;entryY=1;entryDx=0;entryDy=0;" parent="EzjTsVIFKqa_C2gBCvGv-1" source="EzjTsVIFKqa_C2gBCvGv-30" edge="1">
          <mxGeometry width="50" height="50" relative="1" as="geometry">
            <mxPoint x="559.5" y="-11" as="sourcePoint" />
            <mxPoint x="559.5" y="-120" as="targetPoint" />
          </mxGeometry>
        </mxCell>
        <mxCell id="EzjTsVIFKqa_C2gBCvGv-34" value="http" style="edgeLabel;html=1;align=center;verticalAlign=middle;resizable=0;points=[];" parent="EzjTsVIFKqa_C2gBCvGv-33" vertex="1" connectable="0">
          <mxGeometry x="0.0336" y="1" relative="1" as="geometry">
            <mxPoint as="offset" />
          </mxGeometry>
        </mxCell>
        <mxCell id="EzjTsVIFKqa_C2gBCvGv-35" value="" style="endArrow=classic;html=1;entryX=0.888;entryY=0;entryDx=0;entryDy=0;entryPerimeter=0;exitX=0.5;exitY=1;exitDx=0;exitDy=0;" parent="EzjTsVIFKqa_C2gBCvGv-1" source="EzjTsVIFKqa_C2gBCvGv-30" target="EzjTsVIFKqa_C2gBCvGv-21" edge="1">
          <mxGeometry width="50" height="50" relative="1" as="geometry">
            <mxPoint x="400" y="110" as="sourcePoint" />
            <mxPoint x="450" y="60" as="targetPoint" />
          </mxGeometry>
        </mxCell>
        <mxCell id="EzjTsVIFKqa_C2gBCvGv-36" style="edgeStyle=orthogonalEdgeStyle;rounded=0;orthogonalLoop=1;jettySize=auto;html=1;entryX=0.5;entryY=0;entryDx=0;entryDy=0;" parent="EzjTsVIFKqa_C2gBCvGv-1" source="EzjTsVIFKqa_C2gBCvGv-38" target="EzjTsVIFKqa_C2gBCvGv-32" edge="1">
          <mxGeometry relative="1" as="geometry" />
        </mxCell>
        <mxCell id="EzjTsVIFKqa_C2gBCvGv-37" value="upload" style="edgeLabel;html=1;align=center;verticalAlign=middle;resizable=0;points=[];" parent="EzjTsVIFKqa_C2gBCvGv-36" vertex="1" connectable="0">
          <mxGeometry x="0.472" y="-1" relative="1" as="geometry">
            <mxPoint as="offset" />
          </mxGeometry>
        </mxCell>
        <mxCell id="EzjTsVIFKqa_C2gBCvGv-38" value="Client SDK" style="rounded=1;whiteSpace=wrap;html=1;align=center;" parent="EzjTsVIFKqa_C2gBCvGv-1" vertex="1">
          <mxGeometry x="280" y="-340" width="160" height="60" as="geometry" />
        </mxCell>
        <mxCell id="EzjTsVIFKqa_C2gBCvGv-39" value="template" style="endArrow=classic;html=1;exitX=0.5;exitY=1;exitDx=0;exitDy=0;entryX=0.5;entryY=0;entryDx=0;entryDy=0;" parent="EzjTsVIFKqa_C2gBCvGv-1" source="EzjTsVIFKqa_C2gBCvGv-38" target="EzjTsVIFKqa_C2gBCvGv-26" edge="1">
          <mxGeometry width="50" height="50" relative="1" as="geometry">
            <mxPoint x="400" y="-120" as="sourcePoint" />
            <mxPoint x="450" y="-170" as="targetPoint" />
          </mxGeometry>
        </mxCell>
      </root>
    </mxGraphModel>
  </diagram>
  <diagram id="v1GkhPkxEgK6T4xnFyel" name="Page-6">
    <mxGraphModel dx="1625" dy="1763" grid="1" gridSize="10" guides="1" tooltips="1" connect="1" arrows="1" fold="1" page="1" pageScale="1" pageWidth="827" pageHeight="1169" math="0" shadow="0">
      <root>
        <mxCell id="UR9QfDuvAYY256yjIRoY-0" />
        <mxCell id="UR9QfDuvAYY256yjIRoY-1" parent="UR9QfDuvAYY256yjIRoY-0" />
        <mxCell id="HC-F_5O0r6JvRigk_42P-20" value="RTC" style="rounded=0;whiteSpace=wrap;html=1;verticalAlign=top;fontSize=29;labelBackgroundColor=none;" parent="UR9QfDuvAYY256yjIRoY-1" vertex="1">
          <mxGeometry x="-10" y="150" width="670" height="220" as="geometry" />
        </mxCell>
        <mxCell id="UR9QfDuvAYY256yjIRoY-2" value="Signal" style="rounded=1;whiteSpace=wrap;html=1;" parent="UR9QfDuvAYY256yjIRoY-1" vertex="1">
          <mxGeometry x="40" y="220" width="120" height="80" as="geometry" />
        </mxCell>
        <mxCell id="HC-F_5O0r6JvRigk_42P-0" value="&lt;span&gt;RtpConnection&lt;/span&gt;" style="rounded=0;whiteSpace=wrap;html=1;" parent="UR9QfDuvAYY256yjIRoY-1" vertex="1">
          <mxGeometry x="160" y="220" width="115" height="80" as="geometry" />
        </mxCell>
        <mxCell id="HC-F_5O0r6JvRigk_42P-4" value="Stream" style="rounded=0;whiteSpace=wrap;html=1;" parent="UR9QfDuvAYY256yjIRoY-1" vertex="1">
          <mxGeometry x="275" y="220" width="50" height="80" as="geometry" />
        </mxCell>
        <mxCell id="HC-F_5O0r6JvRigk_42P-5" value="VideoFrameConstructor" style="rounded=0;whiteSpace=wrap;html=1;" parent="UR9QfDuvAYY256yjIRoY-1" vertex="1">
          <mxGeometry x="325" y="220" width="130" height="40" as="geometry" />
        </mxCell>
        <mxCell id="HC-F_5O0r6JvRigk_42P-6" value="&lt;span&gt;AudioFrameConstructor&lt;/span&gt;" style="rounded=0;whiteSpace=wrap;html=1;" parent="UR9QfDuvAYY256yjIRoY-1" vertex="1">
          <mxGeometry x="325" y="260" width="130" height="40" as="geometry" />
        </mxCell>
        <mxCell id="HC-F_5O0r6JvRigk_42P-10" value="VideoDecoder" style="rounded=0;whiteSpace=wrap;html=1;" parent="UR9QfDuvAYY256yjIRoY-1" vertex="1">
          <mxGeometry x="455" y="220" width="115" height="40" as="geometry" />
        </mxCell>
        <mxCell id="HC-F_5O0r6JvRigk_42P-11" value="AudioDecoder" style="rounded=0;whiteSpace=wrap;html=1;" parent="UR9QfDuvAYY256yjIRoY-1" vertex="1">
          <mxGeometry x="455" y="260" width="115" height="40" as="geometry" />
        </mxCell>
        <mxCell id="HC-F_5O0r6JvRigk_42P-13" value="" style="endArrow=classic;html=1;exitX=1;exitY=0.5;exitDx=0;exitDy=0;" parent="UR9QfDuvAYY256yjIRoY-1" source="HC-F_5O0r6JvRigk_42P-11" edge="1">
          <mxGeometry width="50" height="50" relative="1" as="geometry">
            <mxPoint x="390" y="230" as="sourcePoint" />
            <mxPoint x="680" y="280" as="targetPoint" />
          </mxGeometry>
        </mxCell>
        <mxCell id="HC-F_5O0r6JvRigk_42P-14" value="PCM" style="edgeLabel;html=1;align=center;verticalAlign=middle;resizable=0;points=[];" parent="HC-F_5O0r6JvRigk_42P-13" vertex="1" connectable="0">
          <mxGeometry x="-0.2" y="-2" relative="1" as="geometry">
            <mxPoint as="offset" />
          </mxGeometry>
        </mxCell>
        <mxCell id="HC-F_5O0r6JvRigk_42P-15" value="" style="endArrow=classic;html=1;exitX=1;exitY=0.5;exitDx=0;exitDy=0;" parent="UR9QfDuvAYY256yjIRoY-1" source="HC-F_5O0r6JvRigk_42P-10" edge="1">
          <mxGeometry width="50" height="50" relative="1" as="geometry">
            <mxPoint x="390" y="230" as="sourcePoint" />
            <mxPoint x="680" y="240" as="targetPoint" />
          </mxGeometry>
        </mxCell>
        <mxCell id="HC-F_5O0r6JvRigk_42P-18" value="YUV" style="edgeLabel;html=1;align=center;verticalAlign=middle;resizable=0;points=[];" parent="HC-F_5O0r6JvRigk_42P-15" vertex="1" connectable="0">
          <mxGeometry x="-0.1636" y="2" relative="1" as="geometry">
            <mxPoint as="offset" />
          </mxGeometry>
        </mxCell>
        <mxCell id="HC-F_5O0r6JvRigk_42P-21" value="Caster" style="rounded=0;whiteSpace=wrap;html=1;labelBackgroundColor=none;fontSize=29;" parent="UR9QfDuvAYY256yjIRoY-1" vertex="1">
          <mxGeometry x="680" y="150" width="120" height="220" as="geometry" />
        </mxCell>
        <mxCell id="HC-F_5O0r6JvRigk_42P-22" value="Signal Server" style="rounded=0;whiteSpace=wrap;html=1;labelBackgroundColor=none;fontSize=29;" parent="UR9QfDuvAYY256yjIRoY-1" vertex="1">
          <mxGeometry x="-10" y="-80" width="200" height="120" as="geometry" />
        </mxCell>
        <mxCell id="HC-F_5O0r6JvRigk_42P-24" value="SFU" style="rounded=0;whiteSpace=wrap;html=1;labelBackgroundColor=none;fontSize=29;" parent="UR9QfDuvAYY256yjIRoY-1" vertex="1">
          <mxGeometry x="270" y="-80" width="200" height="120" as="geometry" />
        </mxCell>
        <mxCell id="HC-F_5O0r6JvRigk_42P-25" value="" style="endArrow=classic;startArrow=classic;html=1;fontSize=29;exitX=0.34;exitY=-0.01;exitDx=0;exitDy=0;exitPerimeter=0;" parent="UR9QfDuvAYY256yjIRoY-1" source="UR9QfDuvAYY256yjIRoY-2" edge="1">
          <mxGeometry width="50" height="50" relative="1" as="geometry">
            <mxPoint x="80" y="147" as="sourcePoint" />
            <mxPoint x="80" y="40" as="targetPoint" />
          </mxGeometry>
        </mxCell>
        <mxCell id="HC-F_5O0r6JvRigk_42P-26" value="websocket" style="edgeLabel;html=1;align=center;verticalAlign=middle;resizable=0;points=[];fontSize=18;" parent="HC-F_5O0r6JvRigk_42P-25" vertex="1" connectable="0">
          <mxGeometry x="0.3242" y="-2" relative="1" as="geometry">
            <mxPoint y="14" as="offset" />
          </mxGeometry>
        </mxCell>
        <mxCell id="HC-F_5O0r6JvRigk_42P-27" value="" style="endArrow=classic;startArrow=classic;html=1;fontSize=18;entryX=0;entryY=0.5;entryDx=0;entryDy=0;exitX=1;exitY=0.5;exitDx=0;exitDy=0;" parent="UR9QfDuvAYY256yjIRoY-1" source="HC-F_5O0r6JvRigk_42P-22" target="HC-F_5O0r6JvRigk_42P-24" edge="1">
          <mxGeometry width="50" height="50" relative="1" as="geometry">
            <mxPoint x="200" y="170" as="sourcePoint" />
            <mxPoint x="250" y="120" as="targetPoint" />
          </mxGeometry>
        </mxCell>
        <mxCell id="HC-F_5O0r6JvRigk_42P-28" value="" style="endArrow=classic;startArrow=classic;html=1;fontSize=18;entryX=0.5;entryY=1;entryDx=0;entryDy=0;exitX=0.5;exitY=0;exitDx=0;exitDy=0;" parent="UR9QfDuvAYY256yjIRoY-1" source="HC-F_5O0r6JvRigk_42P-0" target="HC-F_5O0r6JvRigk_42P-24" edge="1">
          <mxGeometry width="50" height="50" relative="1" as="geometry">
            <mxPoint x="200" y="170" as="sourcePoint" />
            <mxPoint x="250" y="120" as="targetPoint" />
          </mxGeometry>
        </mxCell>
        <mxCell id="HC-F_5O0r6JvRigk_42P-29" value="Udp" style="edgeLabel;html=1;align=center;verticalAlign=middle;resizable=0;points=[];fontSize=18;" parent="HC-F_5O0r6JvRigk_42P-28" vertex="1" connectable="0">
          <mxGeometry x="0.3645" y="-2" relative="1" as="geometry">
            <mxPoint as="offset" />
          </mxGeometry>
        </mxCell>
      </root>
    </mxGraphModel>
  </diagram>
  <diagram id="TpwAcot5VcuWNYSWEbhf" name="Page-7">
    <mxGraphModel dx="669" dy="1813" grid="1" gridSize="10" guides="1" tooltips="1" connect="1" arrows="1" fold="1" page="1" pageScale="1" pageWidth="827" pageHeight="1169" math="0" shadow="0">
      <root>
        <mxCell id="iVdUVeyU8QLMkpsD4F-b-0" />
        <mxCell id="iVdUVeyU8QLMkpsD4F-b-1" parent="iVdUVeyU8QLMkpsD4F-b-0" />
        <mxCell id="iVdUVeyU8QLMkpsD4F-b-2" value="" style="rounded=1;whiteSpace=wrap;html=1;verticalAlign=top;" parent="iVdUVeyU8QLMkpsD4F-b-1" vertex="1">
          <mxGeometry x="80" y="-10" width="680" height="240" as="geometry" />
        </mxCell>
        <mxCell id="iVdUVeyU8QLMkpsD4F-b-21" value="media" style="rounded=0;whiteSpace=wrap;html=1;align=center;verticalAlign=top;" parent="iVdUVeyU8QLMkpsD4F-b-1" vertex="1">
          <mxGeometry x="95" y="100" width="455" height="110" as="geometry" />
        </mxCell>
        <mxCell id="iVdUVeyU8QLMkpsD4F-b-26" value="Signal" style="rounded=1;whiteSpace=wrap;html=1;align=center;" parent="iVdUVeyU8QLMkpsD4F-b-1" vertex="1">
          <mxGeometry x="330" y="-180" width="160" height="60" as="geometry" />
        </mxCell>
        <mxCell id="iVdUVeyU8QLMkpsD4F-b-27" value="" style="endArrow=classic;startArrow=classic;html=1;entryX=0.5;entryY=1;entryDx=0;entryDy=0;exitX=0.485;exitY=0;exitDx=0;exitDy=0;exitPerimeter=0;" parent="iVdUVeyU8QLMkpsD4F-b-1" source="iVdUVeyU8QLMkpsD4F-b-2" target="iVdUVeyU8QLMkpsD4F-b-26" edge="1">
          <mxGeometry width="50" height="50" relative="1" as="geometry">
            <mxPoint x="360" y="-11" as="sourcePoint" />
            <mxPoint x="450" y="-130" as="targetPoint" />
          </mxGeometry>
        </mxCell>
        <mxCell id="iVdUVeyU8QLMkpsD4F-b-28" value="ws" style="edgeLabel;html=1;align=center;verticalAlign=middle;resizable=0;points=[];" parent="iVdUVeyU8QLMkpsD4F-b-27" vertex="1" connectable="0">
          <mxGeometry x="0.0336" y="1" relative="1" as="geometry">
            <mxPoint as="offset" />
          </mxGeometry>
        </mxCell>
        <mxCell id="iVdUVeyU8QLMkpsD4F-b-29" value="Signal" style="rounded=0;whiteSpace=wrap;html=1;align=center;" parent="iVdUVeyU8QLMkpsD4F-b-1" vertex="1">
          <mxGeometry x="365" y="10" width="110" height="60" as="geometry" />
        </mxCell>
        <mxCell id="iVdUVeyU8QLMkpsD4F-b-30" value="Script" style="rounded=0;whiteSpace=wrap;html=1;align=center;" parent="iVdUVeyU8QLMkpsD4F-b-1" vertex="1">
          <mxGeometry x="555" y="10" width="110" height="60" as="geometry" />
        </mxCell>
        <mxCell id="iVdUVeyU8QLMkpsD4F-b-31" value="" style="endArrow=classic;html=1;exitX=1;exitY=0.5;exitDx=0;exitDy=0;entryX=0;entryY=0.5;entryDx=0;entryDy=0;" parent="iVdUVeyU8QLMkpsD4F-b-1" source="iVdUVeyU8QLMkpsD4F-b-29" target="iVdUVeyU8QLMkpsD4F-b-30" edge="1">
          <mxGeometry width="50" height="50" relative="1" as="geometry">
            <mxPoint x="400" y="60" as="sourcePoint" />
            <mxPoint x="450" y="10" as="targetPoint" />
          </mxGeometry>
        </mxCell>
        <mxCell id="iVdUVeyU8QLMkpsD4F-b-41" value="script" style="edgeLabel;html=1;align=center;verticalAlign=middle;resizable=0;points=[];" parent="iVdUVeyU8QLMkpsD4F-b-31" vertex="1" connectable="0">
          <mxGeometry x="-0.2617" relative="1" as="geometry">
            <mxPoint as="offset" />
          </mxGeometry>
        </mxCell>
        <mxCell id="iVdUVeyU8QLMkpsD4F-b-32" value="Script server" style="rounded=1;whiteSpace=wrap;html=1;align=center;" parent="iVdUVeyU8QLMkpsD4F-b-1" vertex="1">
          <mxGeometry x="530" y="-180" width="160" height="60" as="geometry" />
        </mxCell>
        <mxCell id="iVdUVeyU8QLMkpsD4F-b-33" value="" style="endArrow=classic;startArrow=classic;html=1;entryX=0.5;entryY=1;entryDx=0;entryDy=0;" parent="iVdUVeyU8QLMkpsD4F-b-1" source="iVdUVeyU8QLMkpsD4F-b-30" target="iVdUVeyU8QLMkpsD4F-b-32" edge="1">
          <mxGeometry width="50" height="50" relative="1" as="geometry">
            <mxPoint x="559.5" y="-11" as="sourcePoint" />
            <mxPoint x="559.5" y="-120" as="targetPoint" />
          </mxGeometry>
        </mxCell>
        <mxCell id="iVdUVeyU8QLMkpsD4F-b-34" value="http" style="edgeLabel;html=1;align=center;verticalAlign=middle;resizable=0;points=[];" parent="iVdUVeyU8QLMkpsD4F-b-33" vertex="1" connectable="0">
          <mxGeometry x="0.0336" y="1" relative="1" as="geometry">
            <mxPoint as="offset" />
          </mxGeometry>
        </mxCell>
        <mxCell id="iVdUVeyU8QLMkpsD4F-b-36" style="edgeStyle=orthogonalEdgeStyle;rounded=0;orthogonalLoop=1;jettySize=auto;html=1;entryX=0.5;entryY=0;entryDx=0;entryDy=0;" parent="iVdUVeyU8QLMkpsD4F-b-1" source="iVdUVeyU8QLMkpsD4F-b-38" target="iVdUVeyU8QLMkpsD4F-b-32" edge="1">
          <mxGeometry relative="1" as="geometry" />
        </mxCell>
        <mxCell id="iVdUVeyU8QLMkpsD4F-b-37" value="upload" style="edgeLabel;html=1;align=center;verticalAlign=middle;resizable=0;points=[];" parent="iVdUVeyU8QLMkpsD4F-b-36" vertex="1" connectable="0">
          <mxGeometry x="0.472" y="-1" relative="1" as="geometry">
            <mxPoint as="offset" />
          </mxGeometry>
        </mxCell>
        <mxCell id="iVdUVeyU8QLMkpsD4F-b-38" value="Client SDK" style="rounded=1;whiteSpace=wrap;html=1;align=center;" parent="iVdUVeyU8QLMkpsD4F-b-1" vertex="1">
          <mxGeometry x="330" y="-340" width="160" height="60" as="geometry" />
        </mxCell>
        <mxCell id="iVdUVeyU8QLMkpsD4F-b-39" value="" style="endArrow=classic;html=1;exitX=0.5;exitY=1;exitDx=0;exitDy=0;entryX=0.5;entryY=0;entryDx=0;entryDy=0;" parent="iVdUVeyU8QLMkpsD4F-b-1" source="iVdUVeyU8QLMkpsD4F-b-38" target="iVdUVeyU8QLMkpsD4F-b-26" edge="1">
          <mxGeometry width="50" height="50" relative="1" as="geometry">
            <mxPoint x="400" y="-120" as="sourcePoint" />
            <mxPoint x="450" y="-170" as="targetPoint" />
          </mxGeometry>
        </mxCell>
        <mxCell id="iVdUVeyU8QLMkpsD4F-b-40" value="API" style="edgeLabel;html=1;align=center;verticalAlign=middle;resizable=0;points=[];" parent="iVdUVeyU8QLMkpsD4F-b-39" vertex="1" connectable="0">
          <mxGeometry x="-0.0375" y="2" relative="1" as="geometry">
            <mxPoint as="offset" />
          </mxGeometry>
        </mxCell>
        <mxCell id="iVdUVeyU8QLMkpsD4F-b-43" value="NAPI" style="rounded=0;whiteSpace=wrap;html=1;fontSize=20;verticalAlign=middle;" parent="iVdUVeyU8QLMkpsD4F-b-1" vertex="1">
          <mxGeometry x="80" y="240" width="680" height="40" as="geometry" />
        </mxCell>
        <mxCell id="iVdUVeyU8QLMkpsD4F-b-44" value="&lt;font color=&quot;#b5739d&quot;&gt;Engine&lt;/font&gt;" style="rounded=1;whiteSpace=wrap;html=1;fontSize=20;verticalAlign=bottom;" parent="iVdUVeyU8QLMkpsD4F-b-1" vertex="1">
          <mxGeometry x="80" y="290" width="680" height="400" as="geometry" />
        </mxCell>
        <mxCell id="iVdUVeyU8QLMkpsD4F-b-45" value="" style="rounded=0;whiteSpace=wrap;html=1;fontSize=10;verticalAlign=top;" parent="iVdUVeyU8QLMkpsD4F-b-1" vertex="1">
          <mxGeometry x="100" y="310" width="330" height="160" as="geometry" />
        </mxCell>
        <mxCell id="iVdUVeyU8QLMkpsD4F-b-48" value="engine" style="rounded=0;whiteSpace=wrap;html=1;fontSize=10;" parent="iVdUVeyU8QLMkpsD4F-b-1" vertex="1">
          <mxGeometry x="105" y="320" width="50" height="30" as="geometry" />
        </mxCell>
        <mxCell id="iVdUVeyU8QLMkpsD4F-b-49" value="engine" style="rounded=0;whiteSpace=wrap;html=1;fontSize=10;" parent="iVdUVeyU8QLMkpsD4F-b-1" vertex="1">
          <mxGeometry x="241.75" y="320" width="50" height="30" as="geometry" />
        </mxCell>
        <mxCell id="iVdUVeyU8QLMkpsD4F-b-52" value="engine" style="rounded=0;whiteSpace=wrap;html=1;fontSize=10;" parent="iVdUVeyU8QLMkpsD4F-b-1" vertex="1">
          <mxGeometry x="370" y="320" width="50" height="30" as="geometry" />
        </mxCell>
        <mxCell id="iVdUVeyU8QLMkpsD4F-b-55" value="Service" style="rounded=0;whiteSpace=wrap;html=1;fontSize=15;verticalAlign=top;" parent="iVdUVeyU8QLMkpsD4F-b-1" vertex="1">
          <mxGeometry x="105" y="380" width="315" height="80" as="geometry" />
        </mxCell>
        <mxCell id="iVdUVeyU8QLMkpsD4F-b-56" value="" style="shape=image;verticalLabelPosition=bottom;labelBackgroundColor=#ffffff;verticalAlign=top;aspect=fixed;imageAspect=0;image=data:image/png,iVBORw0KGgoAAAANSUhEUgAAAEQAAAAoCAYAAABHJVyTAAACeUlEQVRoBe3ZOYhVSRTG8R+CGk0iBooGBmomaOKCiWM0YqAoTiCICwoioonOqIygkVEHbuASiIPgvgWiibhgMjAaiQg6IpoYmA2ouLWcpi5dFM/2if3sZ1sXLvecr069W+f/qk7dy6UelcCABKYv6fk4Y2lPbz17eoOFADEgsZ+osY9FBdL/j1cg/Sz6rAqkAikIFG6dIRVIQaBw6wzpAJBHWFH87g/rDsYMeYMNXUDgF+z81nEMJyAz8X83AlmMuRiPtTiEvzChGGzEzcNYrMRB7MKcIm4Zfi20cH/P9EU4jrfYks4pLfp8UerEDLmIv/EfLuFcGujLlHwzqMs4g/u4gX24iQ/Y3AQlbX/mN+YtNPo23Et9zyPO2U3g11w7AeQ04mUxT2pygrI1G1wTtyPTwuzBK4xLekBqEs9DcyChr+7WJXMS7zEmHz3u4HCmRdwLjMy0MKPfO6xK+rAAEsmXxwWcysQAcj3zc/NpqiehDQsgZ/Pskh1aCeRKi7iQnmB3avsckLvFUurqJdMukIctgIzGa6xJbddwooiLnSmKb15bhgWQKL7zi2TXpwI8KelH8RgjsrioL9H3QKHFtjsq077a7MQuE7Wh3RnyHLEdb8cS7EkFNa7NEc8gkfw/WIfYYp/hXxxpgjA1xe3FckzL2to2BwNI7PkLsjvGg9Gfmd+Yf6QHpsZvwP2Wnkdi+VzNdpcmLq6RYNSSBziGWdiITXlQ2uqjoN/GwqKtLXcwgLR1oxZBDZAWTUMnVSAF+wqki4DEy97EYjxD7g7lDBny5FsNoAIpqFQgrYDUj939H/r7PnYXkKpbCVQClUAlUAlUApXA9yLwCRzMFfvSiAPiAAAAAElFTkSuQmCC;" parent="iVdUVeyU8QLMkpsD4F-b-1" vertex="1">
          <mxGeometry x="110" y="410" width="51" height="30" as="geometry" />
        </mxCell>
        <mxCell id="iVdUVeyU8QLMkpsD4F-b-59" value="" style="shape=image;verticalLabelPosition=bottom;labelBackgroundColor=#ffffff;verticalAlign=top;aspect=fixed;imageAspect=0;image=data:image/png,iVBORw0KGgoAAAANSUhEUgAAAE8AAAAoCAYAAAC/xadkAAADu0lEQVRoBe2aW6hOWxTHf+4d4cHlHLkUhRcpxHF5EJ6UhC0ejnJNKeKBhCKe5GEntxfXlBLy4BYpcaTOUUiSPLhFckkRRe76t8ey5rf2Wt+wfbv9bcxZq2/OMf9rjLl+a17Gqg9iiQSaBYHBNbWfh0yr/RKv+gzEpuxLErSygt+402XjCiK8YgIRXgVsIrwIr5hABT3uxHIFFQT/2W912biCn51ABeN32biC/OAtgD/yu34dq8vGFaQsWgErgP+AV8An4BqwBRiXyn6dmsvGFdSx6Ab8D7wDNgKTgOHAbOAs8BGY/IPYOgJrfvDehtzW4DguG1dQN7zdwAtgaM5otYQ3AG+BMTn9nulv4LUnaoT+Bsdx2bgCGGhLVEu2qLQGbgHHAsH0guU8I7Brtu4D3gPL7epvPqYAY4GuNsO3A+uAUUEMVXsCy4B2GXuvwF4uTua2tOmycQUwH9AHcofUbW5tKfA46DkPbA3aSfXfwL4SuGov5wiga6QJjwKHgBvAOdtb5VN7rWIlRYD1fd4lMdiv9uHEXi5O5ra06bJxBXV73KPUZWFtgg22tym+B56kcwuW7UHztzoTsRZ4A3Q3+/fAKxcn4z5tumxcAewCrqcuC2sj7GGTmVMpvAPAE6BNJmJn4AMwx+zNGt4S4GXmAfKaU215d7LOxoCnkzyv3Lf9T33NGt5om1F9854isK0FbgbtInhXgj1P8qJlq5l3MvAXVu8C681QBE/pVLLnlYsT+i2pu6vSFUB7Ow33lngubSiHegbsCcyngf1BW1WdnNrww4OkHDyd4NmiU1Vp0Tzr0DYhSP0yws3NAZ7GpGRYifCizADV1DLVKXkn2MRl3wncBloG92if0oNuy9iUqrQNbKpq5kk7PmNfaC+zj9mVqkg3K9Appman7HphKoqdF8e66/+4E8sVpD5X2WCUNmiJLgA2AfeApzlvPkkVLplW6cID4DKwI3XLAPOrmfIPMMj6BO8h8BxQ7BpLxnVYKCkPi9IffTJqRs8EztgleD1MWBQn9FNSd9m4ghJ3DLNE9oTlX4KgB/6zVPatpT7tfdoLtex1Ii8GdAiFRXnbReACMNE6BO8woBRI+Z6W8KnglA3v/8u2jCQnVHqjMR0PZp70eXFCPyV1l40rKHHXpI0EXpMGDYO5bFxB6K1p6xFeBbwjvArg6RTVx33VirsqXUHVhl79wC4bV1D9Z6jaCFw2rqBqQ69+YJdN/KNP/T/4CJou948+1X+/cQSRQCQQCUQCkUAkEAlEAo1A4CtX3Vg+541oQQAAAABJRU5ErkJggg==;" parent="iVdUVeyU8QLMkpsD4F-b-1" vertex="1">
          <mxGeometry x="161" y="410" width="59.25" height="30" as="geometry" />
        </mxCell>
        <mxCell id="iVdUVeyU8QLMkpsD4F-b-60" value="" style="shape=image;verticalLabelPosition=bottom;labelBackgroundColor=#ffffff;verticalAlign=top;aspect=fixed;imageAspect=0;image=data:image/png,iVBORw0KGgoAAAANSUhEUgAAAEUAAAAoCAYAAACo5zetAAAC60lEQVRoBe2aS8hNURTHf14jr7xKkpIiE4+SEIVQ5JUvoWRgwIiRUESeA9xighIpA4oYKGTEzDOFGHhGpjIjj4/+91u71nfb97vXd099J9aqc88+66x19t6/s/Za+3YvhASBpghMWVVpn9pW+R1HBwPxQDCaovefGFV5BJTObzugdOZRvQooASVDIKOKSAkoGQIZVU9GyiRgcmZMPa5qFcob4D0wosFMtgAfgd3O7iJw2V2XptkqlO+ANn47u5hRL+C12VWc3T8bKYLy1qKlt5uwby4CfgGfAA/F25SqXUSk7AHagRV1ZnYVuAHcq4GyBFhqPmuAdRn/TYDskgwG2oATwEFgYbph52XAXGAMsB04UnO/qcsioKwFbttR2+ko4AewPAPF5xQBFdj57gEbzHe66YYAL4BvwDXgpS3JY87nCnAeeAfcBU67e003i4Ky0iY1vqbnvZZg+zSAIrezNpkBgGB+Bva55yniXgFDnW6b9Zuq2AUDtcvZ/HWzKCia9AfguBuBdKo4Wl6S2uXjI0X3B1p+OgVcBx4AfTtcUbL+Auy363QaZtGUIJwzKKOTQXfORUFR3yq3Gnh/G4iWhJaO3rqkERTZzLZJfQUmdLhVP8eZ/j6gJeIP2Z4xW0HR0mlJioQyElA1UnKU3AIU8kmagTLTJq+8MTE5AirfKv2Kos2ZI+UiQbnp/LrVLBKKBnAJeAiMtbWucpykERRFmHKG3rqq1WOgnzkPMigH0sPqnEsJZY4NXhGiDZtyQZJGUBQFCn3llpRoDyVng/Sk5pnaSSsyZphdKaFobM8MjPYJXrqCstg2ePOcw3rgJzDLdAtseSqKtKfZCjwFHgGKJEkpoCgiFB1eVlv1GO6VwFFgo9OpnO6w65N1vipoByy/JNNsiT4H7gCHAd+PQGkb0JK0mlNa6ryszgEl82YCSkDJEMioIlICSoZARhWRUg9K/MDe+c8F1R/YM7BCFQSCQBAIAkEgCASBMhD4Azp0LiX66++0AAAAAElFTkSuQmCC;" parent="iVdUVeyU8QLMkpsD4F-b-1" vertex="1">
          <mxGeometry x="220" y="410" width="51.75" height="30" as="geometry" />
        </mxCell>
        <mxCell id="iVdUVeyU8QLMkpsD4F-b-65" value="" style="shape=image;verticalLabelPosition=bottom;labelBackgroundColor=#ffffff;verticalAlign=top;aspect=fixed;imageAspect=0;image=data:image/png,iVBORw0KGgoAAAANSUhEUgAAAFoAAAAoCAYAAAB+Qu3IAAAEnElEQVRoBe2aW6itUxTHf+ROkij3eCLEOV5EFJIohXOE3I486DwoD7zgASmKtmvkGiLXiNzJpdyVSx2k3JNL8kS55tJvrzFrntnaayz2WXuvdnPUt+f3zflfc475++Ycc6zdgm6dwJImsGzFzN/LV87806/5MZDjyIUi4JGC3jgWgZRjKhhrmC5KOaaCznAsAinHVDDWMF2UckwFneFYBFKOqWCsYboo5ZgKOsOxCKQcU8FYw6wl2hQ4Eth8rdrpftDnI4DN/q+bKcdUMBj5M+DruL4CXgPuBM4CNmic2x0wN9+rqZ/mx3n7nHJMBQM8fwC3ACuAk4DzgbsB69cA+1UUXR1HLeKKPhY4sPJnnNupAr16iMc6+B7wCbDJkPbFqHoKOPc/Djz1oJ3PPsCfwIUxua1ioltXkzWMuAvcFac1q90VeAiwDbAKuAG4GDig+ny5te/jgSuBq4DlpQHYNsb9DngCOC/6K5LtgHOAm4CzgT1KA1CDPhy4DLg2xqpkc9+mkSEVDPo2RAxb0WXkpwFXklY77fPJwG/A/cA1EefvGEhn/z4GPAh8ALwEXAe8DPwVYIp0feBF4Js4H9T6jxzPCm034GHg1+jL+6ujzRf9bdTfCLwZ58hB0V589iV8EQvi09BcEpqRRcoxFQy6z0AL0ANTK06Xw/B14LZos9gfuAvYMuoeiAldUGm8nQF+AVyJmufAu8De8WzhZ4RdNNZ5WLeh43HgjSa8+TL1TSs+uxuKX+sBtwI/A96PtJRjKhh0n4H2rf8QnhSnC+hXYrW32Ulx/D7ge2DDUhGloceQdEZTXz8aOsxw6jDTgvZwVuMhXtsWFfjisy+3NsOIn92+rhx2n3JMBYNeM9Bu3+fCgeJ0AX10ZCeuFmO0OXa9QgT9wjDngS8jXpdm+zQcPA98FNtcEAIp1oI2FqtZVgRDyuLzoU2b54+freN5Ixk8phxTwaCfUaCNnU760vCgOF1AW71zHE4Cdas/A2wUekE/Gfdt8TlQYqSgfgeeBU4FDo4rA11W/Z5t59XzMJ9tdg5TA/rMcMZvVtpcTkczh4W+rB5Bf1waq3LjONjsX3PHeKAZCooZrzPQZjNq3Elz2Vw+Tw1o4+dPwBXVDGqndwFujxVdJDvExFdGhaAF4QuozSzHnbRrVJrZmHXUZhhpQbfhRr15vl+wavOgc2dptc9RNVssCmjTN7exIeKeSJWcpClRbbXThpVXI506HTgREJhx1BWrCdqv9z9Gru23z8vjILQsdkKkfObQ9mWK+PYQ0PcGWDXm7NopEbL0VR98QaaPx0V77XNUzRYLDvoRwBSpXDeH88be1lyx6kqb+e318WLeAi5qDhdBPxRb23zaMOLLaLMNsxLhPQq8H7AMC461b+WEsdj08Z3I3UvTMfFF5sNYKMIv1vpc6p2D/ds+0tKzLhWM7H6dNBbQ66Szxeok5ZgKJu95Bz15xrMjdNALBHpHYKcFGmtiw6SRIRVMzLWl1XHKMRUsLR4Tm03KMRVMzLWl1XHKsf/IcX4/bhSwV/ojx6W1rvpsOoFOoBPoBDqBTqAT6AQ6gYkQ+BdzJrraodg1CgAAAABJRU5ErkJggg==;" parent="iVdUVeyU8QLMkpsD4F-b-1" vertex="1">
          <mxGeometry x="271.75" y="410" width="67.5" height="30" as="geometry" />
        </mxCell>
        <mxCell id="iVdUVeyU8QLMkpsD4F-b-66" value="" style="shape=image;verticalLabelPosition=bottom;labelBackgroundColor=#ffffff;verticalAlign=top;aspect=fixed;imageAspect=0;image=data:image/png,iVBORw0KGgoAAAANSUhEUgAAAGkAAAAoCAYAAAD9htTzAAAFQklEQVR4Ae2aaahVVRTHfw1CRaM2USREmVFpGs1hH6QksiJUiqLhQ5INFEVRUBRRmZCpaOFARGqQBdmADZRhfvBL0UwTFTTPBBXRYGXxv6793nrnnnXfvm84kuwN59199n/ttdZe/z2sfXhQSolAicAQR2DCtHmbJk6f9295tnwMxEUtvSKnFiiNjUcg5CIEGnexGAy5CIESs8YjEHIRAo27WAyGXIRAiVnjEQi5CIHGXSwGQy5CoMSs8QiEXIRA4y4WgyEXIdA5ZquAL4CjOosVtJsIhFyEQKz9AOAf4FdgcSy2VSNnAycO9QhDLkIg9uBW4FvgWuAnYMdYdKtFngWuG+rRhVyEQL0H2wKfAvOBvYCNwAX1oowCrgSWANcD44D9bHDbuT45cpJRUDQhzgDuA05yOiaaDdm6CtjTYamaY0eyuwMzgLk2TulORWOWH98AT5vNixMI7AZMBxYCdwKnOqzfashFCNSrnALoW98RBj8JrK8RPQT4DPgKuB9YCfxgA1f/HaxPrpzsqd9ttoofcwGYZdj7wBPAH8CXwFjnV64dTcJ15vdy4CVAHz1VVzkQWA38Drxj9QWG7QG8Z/blh/yRz/cY3u9PyEUI1Kt8FHjFQWeZIwe7NlUfBz621ZYgBU2Dk+PbWGOu3EHWT8nK3kkhoFn+t62e1KwVowmiYKaSa0eJ0OtuEqr/TUbUvkmZ6a9ud7LxETDSyWkHEclHurawGnIRAu2qtIX8CWjmprI98B0wJzXYKpFjV7i2VF1kwda7VlOOnGRHW78HkiL71bn4G7BzpV3bsXzVZOjGTkVN61UTQRPrBAdqEniSZEfn8+1ORlVNmL+Amyvtta8hFyHQrkYBkbOXAee5ZwPwNZDOmUNNri77ucQwac+Vk2wiye//an8I+AXQ9uef18zO/l3akc7DAW1ha237+sR0nSLQSpWktNJfrvghn7R7aMvvt4RchEC7ynftXNG+658PbBBnWpfx9n5suwoUZBGtkisn2UTScZu79vzVFqPzR6u77tm1SzsTbAU+bwnRJECPfO5EUhqLEpc6Pyb3eNyhEnIRAn2VaanL0al9m3ve3gaesjcdoJI9pwftrdzlSMqVU++IJG1rShR26jXRVuvGzgu2K/hrRUpaOpGkyaAx39FmvYuGkIsQ6KtcZ4EytbSl9UXhGtt70+H6lmVGypZSUWr7oyNJ7blyEUlavQqOLpe+KA1f6hpy7Txn2Z3r2tr6ZMOTpGuIMk1ftMW+4ZIiYUrZpfN4LxjVQy5CoFfTLvZ1QasgKimpuNEETjfSXgRmspnED4FnKiTlykUkyZxS5p+BG4BzgXst47vQOZtrR6tfX1N0R7oIeNCy2SpJD1smJ5lkRyTq3qiLrs7sqwHtMK8CWmn9lpCLEOhVqXNgDaDDsVPRUr/bCZwM6BufZtgKYBpwue35TowcOU0C+TDGd7T6COAWW7k6K5VMVFeWRHPsSJcCr/vfm5ZAJNs+jT7MxqSxPeJ8OtredYfS/VETW/2zSshFCGSpDYV0fzqtBpXj2hJSyZVL8gP9bcrOQP1r9Qu5CIFBmWvdC3Sgnw/onDoGmG33IrWlovtDjlySH+hvU3YG6l+rX8hFCAzKHEoYlgGf2xmkPf174NKK2ly5SreuX5uy07VjvkPIRQj43oOr60K5T4aKXLkMVR1FmrLT0Yk6MOQiBOq0lLZhjUDIRQgMqztFeV0EQi5CoE5LaRvWCIRclH/Y3/L/qC9y9IT/sD+sU6MoLxEoESgRKBEoESgRKBEoESgRKBEoEfh/ROA//JVUE9042EAAAAAASUVORK5CYII=;" parent="iVdUVeyU8QLMkpsD4F-b-1" vertex="1">
          <mxGeometry x="339.25" y="410" width="78.75" height="30" as="geometry" />
        </mxCell>
        <mxCell id="iVdUVeyU8QLMkpsD4F-b-67" value="" style="endArrow=classic;startArrow=classic;html=1;fontSize=15;entryX=0.5;entryY=1;entryDx=0;entryDy=0;exitX=0.077;exitY=0.01;exitDx=0;exitDy=0;exitPerimeter=0;" parent="iVdUVeyU8QLMkpsD4F-b-1" source="iVdUVeyU8QLMkpsD4F-b-55" target="iVdUVeyU8QLMkpsD4F-b-48" edge="1">
          <mxGeometry width="50" height="50" relative="1" as="geometry">
            <mxPoint x="170" y="390" as="sourcePoint" />
            <mxPoint x="220" y="340" as="targetPoint" />
          </mxGeometry>
        </mxCell>
        <mxCell id="iVdUVeyU8QLMkpsD4F-b-69" value="" style="endArrow=classic;startArrow=classic;html=1;fontSize=15;exitX=0.524;exitY=0;exitDx=0;exitDy=0;exitPerimeter=0;" parent="iVdUVeyU8QLMkpsD4F-b-1" source="iVdUVeyU8QLMkpsD4F-b-55" edge="1">
          <mxGeometry width="50" height="50" relative="1" as="geometry">
            <mxPoint x="220" y="400" as="sourcePoint" />
            <mxPoint x="270" y="350" as="targetPoint" />
          </mxGeometry>
        </mxCell>
        <mxCell id="iVdUVeyU8QLMkpsD4F-b-71" value="" style="endArrow=classic;startArrow=classic;html=1;fontSize=15;entryX=0.5;entryY=1;entryDx=0;entryDy=0;exitX=0.921;exitY=0;exitDx=0;exitDy=0;exitPerimeter=0;" parent="iVdUVeyU8QLMkpsD4F-b-1" source="iVdUVeyU8QLMkpsD4F-b-55" target="iVdUVeyU8QLMkpsD4F-b-52" edge="1">
          <mxGeometry width="50" height="50" relative="1" as="geometry">
            <mxPoint x="430" y="360" as="sourcePoint" />
            <mxPoint x="480" y="310" as="targetPoint" />
          </mxGeometry>
        </mxCell>
        <mxCell id="iVdUVeyU8QLMkpsD4F-b-73" value="&lt;font style=&quot;font-size: 20px&quot;&gt;Component&lt;/font&gt;" style="rounded=0;whiteSpace=wrap;html=1;fontSize=15;verticalAlign=top;" parent="iVdUVeyU8QLMkpsD4F-b-1" vertex="1">
          <mxGeometry x="100" y="480" width="640" height="110" as="geometry" />
        </mxCell>
        <mxCell id="iVdUVeyU8QLMkpsD4F-b-78" value="" style="shape=image;verticalLabelPosition=bottom;labelBackgroundColor=#ffffff;verticalAlign=top;aspect=fixed;imageAspect=0;image=data:image/png,iVBORw0KGgoAAAANSUhEUgAAAvAAAABVCAYAAAAv6NAOAAAgAElEQVR4Ae2dB9hsPVHH/6ioCFiwgFiwV9QP7F1UrNi+z4oF7L33Lordi4Ide+9ixV7ALigq2HvvvTf0+b03c7+c3OScSfbs7tndmed537MnmzL5J5lMJpOsFBQIBAKBQCAQCAQCgUAgEAgEAoFAIBAIBAKBQCAQCAQCgUAgEAgEAoFAIBAIBAKBQCAQCBwNgVtuvfbk+9x27f8u7Y96Hw30KDgQCARuRuBShdGawndEsAXuu0+AvbgH5rth7sE7MN4N4yW51GqDwH133FvYlrMmbVSGXcK7p97RD3fvh+Dc6ouB7zr4LsnZLX8/6RueQXkJwmmXOo5gOJJmFx7PMW0vhr3xzxGzXerkwc8TZxceLj1tC99W+KXj1VN/L4beeD1ln0JcT709cU6hrsfmsYVjK/zY/Eb5h0Ng0gcmL4fj4axKGsFwJM1ZgbZCZXox7I2/AotnlYUHP0+cswLlwJVp4dsKPzB7J12cF0NvvJMGo8K8p96eOJWsI6hAoIVjK7xIHq9njMCkD0xezrjS+6zaCIYjafZZh1PMuxfD3viniMk+efbg54mzTx7PPe8Wvq3wc8djzfp5MfTGW5O3LeTlqbcnzhbqsnUeWji2wrden+BvPQQmfWDysl4ZF5XTCIYjaS4KVEdlezHsje9g4aKiePDzxLko0FaubAvfVvjKxZ91dl4MvfHODSxPvT1xzg2XfdSnhWMrfB88RJ7bRGDSByYv2+R381yNYDiSZvNAHJjBXgx74x+4OpsvzoOfJ87mK7phBlv4tsI3XJXNsebF0BtvcxXckSFPvT1xdmTjIpK3cGyFXwQoUckrBCZ9YPISAA0hMILhSJoh5s44US+GvfHPGLqhqnnw88QZKjwSXSHQwrcVHrD5EfBi6I3nL/k0Ynrq7YlzGrU9LpctHFvhx+U2Sj8kApM+MHk5JBdnVNYIhiNpGpDdQdKdGt+ddXAvhr3x9wzeS0p6qT2XsWr2Hvw8cVZl6jCZvaKk5z1MUfOltPBthc/ntpdvkUXIJA89raSn8EQ8RBwvht54e+T5KLLDU29PnD3ispWsn03Sa+/CTAvHVvhMWXee+W5LX3kw65EtW6gb/L6epFXbYNIHJi/rVfk9JT1hvey2ndMIhiNpMhSeUtKHSfoZSf8k6X8l/ZKkR0i6XxbvrD/2Ytgb3wHe70r6A0nPuhD3fSX9saSPyeJ9g6Rvyd43/9GDnyeOo6LvnfACM/5+W9IPS/pASSh9h6ZflfSxhy60Vl4L31Z4LY89hN1F0udJ+o0ki/5W0ndJeodKWc8k6Usk/WaK+/eSvlvS+3co/pVsdw/yYuiNlzhCRlg//kNJPyXpKyW9m6SnGuT6KLLDU29PnJk651iB2eMlfY2kW2bSbPGrt0h9e5i3Fo6t8KKgZ5D0SEn/KInfLGCsfYGkexbxtvTawqxHtmypPvDywgn/F1+TsUkfmLysV8pHSPqr9bLbKae77nvyHcFwJE1CAWXxZyX9p6RPl/RGkl5W0oMk/Yik/5H0JoOI7R2rjK83lfRK2Xv3x14Me+M7GPqvNEDp7y3CGvk7Kd61LNJRrGhZ+d0fPfh54jgK/ihJ/5CsWFiy3ispef8m6bE7KD6OoqtRQoGvwnIV+JxJcf+7tMB6ZUlMxl+V+vzbZElfRNIfSfpzSSxqX1XSW0r64qTwPDSLe/CP3r7rjZcqgIxAmbpV0ltL+siklBL+REn3HajouSrwYIIRijH/xpIelvoWvwCLJfNUqKWMuvlv9bFWeJExix4Wxhg87iPpHSX9nqRHFfG29FrDrEe2bKkuxkso8IbEDs+Xk/TPO6RfTOocVJN8RtKkDL4sDc6a4EdZ/FRJ/y7p1SYF+l72jlXGxqMlfXD23v2xF8Pe+A6GmHAQjFjhW64Ar5OUkz+VlCvwjuy3FcWDnyeOo1Yo8H9RiXf/pBSiDB2SQoFvo/3lkv5a0gtWoqDE/0tm+cPSznipWQLZncJauJPrQYUHd5C373rjpYKREe9RYYLJnV1qdpd6d5XOWYEvsWK3mUX7r1Qw3GpQTRnt4rXVx1rhWeboAOg7D8/C+MgC6D+SQl98tYnXGmY9smUTlSiYOBsFHv8mlDU612tJ+uTUwd68qLDFe2pJr5JcDj5f0rtX/Iho8Jq7CBYdC8cSzSSCEP2Q9FebaAo2+l4dg+qmDEfSSGIrBncZ3GdaxLYsW9lsYRs9R8L/aSwgPVnh0i6Ez2GFtfw1JD1LsvTTJp8gCd/gnDzlsINAmVjhvie1CbsH3dSLYW98B0P0q4+ThIWotevx7ZJYrLBrkivwbyDpAamMt5KUWyqtaLbZiWfE1uhtaexgrUShzemZE7b43pE3bg1YRFchD36eOA5mWgo8SVEIc3eWJUxMpizJHmMLvD5eEn38wZLIv6bAY9lCpnxhsiYzNnJiZ4wx89xpvH5G/uXo5xa+rfDRcpzpqBs7frlrWJ6UfoiMgXCDQEF/1/RePmifFysDD/nuxdAbL/HeUuD5ml24/5b00UU9l/p0TYF/aUkfkHYz6L8oDxC4flDD0s88iyx2bfF76u2Jk/iqPVpYfWjCiboYLWFEvHsk16wvkvQ+ktgBKulFEz7E+URJzHV5OUsy9emTfoK8QC69QtqBYp4ephaOrfCsINoUHGvj7I5ZPD6iK7Ar9GlJ3r2fpHsVcTxzOkl65KwHsx7ZYiwvtSXxaF9k/LNLehdJtDvyi3rmhOsOhiLmUHYyXiL/Mn1eKq+lwC/NHZWibg+a9IHJy+1xdv1UutBwWA/hjdL3+2lLEX83wh6SFUbFCEMp+ktJXyEJizMWnl9LncSi/7ikz7WX7PmYLBw+fjEpvd8miT8G2Ko0guFIGknvnJRFOtcc4U+KgmyEIgGuCKOcWOhY+BxW3ynpmyU9SdKPpW1O8EdIUZaRpxwOA9IO7BKQH58/2zLoefZi2BvfwQuCEgH4g+mvTIKlkQma7eBSgc8nYZR/FgGvmWWA/zBp2RWB8B1mDGBFYSv011PbfVb6nse9UxjjDAv2t1aU/Cx630cPfp44jlJbCjwY0OdwqYE8mHhlD/khyMn/e5MM+TlJ/OG7nC8aMCgwbmgD2oI2+ZNMaSIvsMfXGXmHTGKi2Jla+LbCdy5wPgMWKeBQTvq1VCyGiLvqga5aQaNhXgy98RIfLaXU2Py+tMC3d0+fzmUH6VBI6LecE2G+xH2VPmlKBxZsjAglYUBD7jx/+UXt3VNvT5xa3imshRXzQ+6S68GIRcmfpTkG/2/kL/0Pw6ARZ/VwReU7dIlvSvMSOLL4hOZk6vNI+q3kFoablLmuMPZpj2Fq4dgKLwr6eUm/nAxuxVc3Xu8u6XHJVfHrkgLPLgfWe4xERp45nbheOevFrEe2UL6nLYmHvP5qSeif35HkNP3ubwq8cG9jvsXohjGU8WSLYm95NQXeM3eQf5MmfWDy0kzS/UWpwLNSYfBwMIWVM4TLwZemDmMrXovHZMgKyYgJAh9LfOKMPAo8cfH/OhcXGnzeccVYIrbLwPu5UkTvIGxhhWAjPxSrnOjc+CVj6YC85RAXpQjrzzD19t3e+A7GTIFnVc9E+EJFGixh9Hm2gecUeJIx8aLssThD8ae/54tbLPlst98tKwMLMOXabTZMxDbOsIisSh78PHEcTJUKPPLh5ZMSwsEsc8HwYGIyZUn22O4WVkwjymViBlNT4DEyYHXGh9uIhTH9mcWoEZM56Urrqn0/9Gzh2wofKsSfiMU7i0z69xLRlzHEbJa8GHrjpYq2lFLD4XOSMmHvnj5dKvAouJwjMMIlh8sNUFwhjAH0WRs3KfhqBxRl1UWeenvizBRWYsW4wmiF8vSZWToPRrhrcclD7p6EzvDTKR924lHey3MXyFKMS7arNCdTvzG5hOUyGaWNfI+pwLPbxRki5maMoK9ecfEkHF0iX3wzjpFbKLPPmHDyzuleOevFrEe2eNuSKpkukxseXyDtWrDTA2HkRXab/kQYhrK3vf71lbugp++UCrx37kjF1B+TMTZ5qccfCS0VeKtIaWnF3xGgTFm3eGzllISyiK+x0SUq8Cx4PL6AKDvgarsN3kHYUuCZMLDolltwCC4mcKxrkLcc4p6TAo/g43Aek7ERYSiN7CZBSwo8B4jxD8Ylg8kHK4rdUoEiiUBmizcnJjjwNyWRbUfancXA6uSRFZ44DsZQ4FE4uLGDP3aTmBC5tQe3A8iLicmUJdnzKWkxVO5SYamibFPg2U5lYix3wTAuINThC8J/k7YwF5IUvNujhW8rfLfSFlPTH7lxxkNsRbMAzYntfhSo/O/18wiH/OzF0Bsv8V4qpWWVWNiYddnbp0sFvsyTd3ZNfyB9gTUZ+cG8bMScyxjDfc9Fnnp74swUBlbIQMb8LyT+4BEXD3P/9GBEfRl77I7mxJg1hf6T0i6/5ZvHYzGEGyrUkqnkg/GEQ7cl4U5zTAUefjCUIqtw/wMLLlIwl0vGHbjmxgqrA4u8HDvvnO6Rsz2Y9cgWb1tSR8YOdc8XXYT/ZLYIxs0bDFrup97yDBNzUfPOHdYW1edkjE1eqtGHAlsKfHlAickYoMw3zSrM7QQloSQCvCk1l6jAs7BBEC/RmyXhgq8Z5B2Ecwo8N9zUiEUVLhuQtxzinpMCT32w2NA25iKAWwzKtVm9lhR48mB7l/GABYixYGRWINw52J7N/4jLtXyQTTZDZwpSHs2HR1Z44jQLuP0LFHgsiFgO+WPxiKtBTl5MTKYsyR4sM1zFWiO24k2Bx0IFb3kb8BmFg7YzX0oUeHZUVqUWvq3wVQu/OTPOaKDE1JSgMjbndlj45MSEjmue/WH5yxfBedy9f/Zi6I2XGF5S4HGzwgUP8vbpUoEHf+ZH+jByBrcOdqpQSoxQKrlO0Ij2YEcEZc5Fnnp74swUBlacWWPM43LGeMrdCknqwQh9grRz109iCW7tPpg7Bl4CLZlqFmd2X0tiXBxbgc95AgdcX9GfcKsyfHJ3ojw+7stmFPLO6R4524NZj2zxtiV1ZOzk48Lqza4O+UCMJ/CiDdEz2W3NDTve8gwTU+C9c0dio/6YjLHJSz3+SGhLgbeKWJ68M9BKBZ5rEUtiUAPokgLPRJr7xreU0jL/4fcRDEfSpGsXwWvpR2Ww+uK/ZdQahOZnZp2zhRWdHr/gGmExMVcPbznkc24KPG5ETEAIHuj7JSEUjDwKPIeCaV+2jBF2RrbQxTqPD135Z5OcTTbswKxOnj7rieNgrHSh4WA6uLAwNfJiUgpRS1/KHvwhf8K+LJ4sUk2Bp01x8SvbwN5t0YwCXy46imz7X1v4tsL7S+hKYbcCmQvXXGIuHaANn28mEpPlJSnwKIjIaSx6kLdP5wo8O30/lFzukPtvKOllJOHXnCsqdr7Mru41/95U9PLD08c8cWZKyhc77Pbix818bnO+FyOr69yhaMY7BpEaIcNRdsG2JVPtUDbW2pJYTG1JgYe/p0uLOizbxntrtwuDBe6fkHdO98hZK9eDWY9s8bYl9cnHzvUaXv/P7q4p8ISw08O8ypzLDjCGMm6Ug7zllZh4545UTP0xGWOTl3r8kdBdFfhy6wseEE64KRihIH2tvaQnN0EwcM5VgWcQIuTwX2sRrhhsyaJAGJlPF75eOXHVFJOqR4G3LcU8PStVOvY7pUBvOUQ/NwWeOiEAOBjEAgvLpA14vltS4LHc42KANZ0DZ0xc5rKEUkg72USf4L7p0Zpsboo4EuCRFZ44jrJLBZ4kuBUhSG3r04tJKUSt+FKBR2bQl0trMtvxjDlT4HGVYYHFWJyjS1Dg2aZn1yn3v84xwVqK7yjyhQUuFnhcaVp0aQo8cpNxbXLC26dzJYTbZ8ijdIdgVyhX4MGcH0airczF0gxnrfaYhHvGtifOJNPpS67A8w0H+JnPkQdGHozQA8Bk7u54fOrJu7w9inI4a8YhR6glU+nTlGGKbop+9cAl7FgKPIsWxlzp4gdjzLnIL76D95r7D9/B+9unCnnndI+c7cGsR7Z425Iq5WMnVfHqUSrw+XfsUrFbw2UEkLe8EhPv3JGKqT8mY2zyUo8/ErqrAo8gN19Symerle1ocxUgjM/4deX3b7PypWPmkwRhCAb3VmFvhUcwHEmT+MI9AusAv1ZZEsKNg3QIHztYShy29cGFXQwjcMN6TrgJsRZWdHrimaXX8uDOXrDlZDnkLYe4uevN9dSd/3sx7I3vYIe654tNXL/AiZU2fTPvw0sKPCt9+jgLMNxuOMTKdatGKPTcG53nyZWcWHntrENrsrE8dnp68PPEcTBRU+A5UITrCjcIGHkwKYWopS0VeG5eoO3MT9Ti4bdIuJ1lsF2rcuucbdb8pplLUODBiN03FjRYfnNi8ck5Dnxw6dMQihFxa/f4Y53D8leeVUhJ9//w9l1vvMRxqZRaRZC19OfyelFPn86VEFPG89/94GAiC6tSgUdeI1eYO7mZpos89fbEmSm0hhU7MvSZ3JruwQhjCC4LOVFvDH8QeDGuOSSbEzfc4Fpk96jPyVTOo5UYowBzOBQDzjC1cGyFZwVxeQH9qlxY4M9NfdkphH406QlmJErBV4aKf81cAb1zulfO9mDmlS3etqSO+dixOvPMFXjGCXI/Jxa+5mLpLa/ExDt35OXe9HnSByYvN0UdDthVgUcB5QAOp35x68BygF9WfirYrkBkG4w7TykTCz1xuTnCiJtB6LgMyAdmV2vZ9zs/RzAcSZMxyq/5USf8tFAsqD8THwogOJWWdpKyemRgY2kEV7v6kHzMT7uFFZ2eA5n4qFI2EzA/GIWPN8+cPOUQ/+uTxZlFha3283wWP/di2Bt/kYHri5dcgScJ10+BaXlX/5wCz1YmVg/7/QLyebu0ULMtb3y4meCwznNnPOchEIb0dxZu0Nxkk6KMPzz4eeI4OKgp8CTjLmewNWXRg0kpRK34UoFnYcRkzKFMhDdX7KE8oAiw0OWQqxGTHz7GtDGHABlTLKrzfnwpCjwKCwcmqT/+3BgWwANZxK9B5rIIRZ7FLcoNfu/gzG0Q9lsdXPFmOyyG9cGe3r7rjZcYtzGLMsIOGrvGXJ9LP84XfFZPT58ulRAWScgBfLfBFB94FvulcomcQDmj7LyvWtmzT0+9PXFmCqkp8PQvjD3ITzPWeTBijqOfgTFjlPkRGZu74XHYn4PnjG3mNBbh9FvGO4o8NCdT+Y0O5kCMZpSB6w1tgbUWjIeNhi0cW+GJV3swR7ObSD+hT6APsSuPUcnOaOGuxfgEV3aC4B88wKxUXj1zulfO9mDWI1s8bQk+5dgxzHIFnh0x5BljlrkG3RLdKdd1POXVMPHMHcZT9TnpA5OXavShQKxZ+eoXBZEt8FwBJ2PeCTcF0irM1hnbFFwDhSCiA1qcnCEUcqz1+PPhVoI1gkm+vMWGSQJhhtXBJv88n50+j2A4kqZgEj9HrhHkx5CYEMAIPFrXB3KbBkqF3eWOkkRc8DcLPEXUsLJOz5YkEy/uNFh+sSKV5C0HiwoTN9aU3PeszK/53othb/xmwbd/gTJSHrjG17fElBT0Z3M14p22+/CUFde9ISRK4uYl0hnR5mBFG9LvmXjytuMzZa/+Y2Uw4MHPE8cqM/NEec4t7RaVCZybmFAQjZYw8coe8mOnj+1vZAWLI6wu+GyzE5L3daxWuNSwgEb2IOtKizwyqLSCGc/Dzxa+rfDhgvoSsvhBeeEQJQtYFHrqjwtNjVi0M/b5jQ4MMOw+cc7hqOTF0BsvVQYZwZi0P/oUymU5F+Z1X+rTuewgHedlUC7wGQd7+iIGAG5vKQnXGhQ3u+e8/L757qm3J06zgOuLu5rbCwo7+OU/HLiEEcVwkQDzI0o1CydwL4lxTd4c8GU8I1NRHI2WZCqWbTDlNyGYE7FwYxwgz9Idz/JcfLZwbIUXGSKf+CE/Di5Td271MVe2PCo3ZLHAYQwybhm/Nf90z5zeI2d7MOuRLUttSd3LsWN4YIzhOyNkFEZG5DvnSdCtygXZUnk1TDxzh/FQfU76wOSlGv2ggabAMwBOhkYwHElzREBMgT8iCzcX3Ythb/ybS7zsEA9+njiXjeJutW/h2wrfrbTLSu3F0Btvg+hhsGGHKbckutn01NsTx13gBUds4dgKv2CoLq7qkz4weTk+FKHAH78NahyEAl9D5cLCPLLCE+fCYFu1ui18W+GrFn7mmXkx9MbbEFy4zmClZwea3VN2mrrJU29PnO6CLzBBC8dW+AVCdLFVnvSBycvxIQkF/vhtUOMgFPgaKhcW5pEVnjgXBtuq1W3h2wpftfAzz8yLoTfehuDClQafbHyz8X0eIk+9PXGGCr+wRC0cW+EXBs9FV3fSByYvx4cF/6B7V3yNjs/ZDAcjGI6kmWFh319xEn3VX5Rcg+FeDHvjr8HjOeXhwc8T55wwOXRdWvi2wg/N3ymX58XQG29DWHB42H7tfJgtT709cYYZuKCELRxb4RcEzcVXddIHJi8XD80YACMYjqQZ4+58U/Vi2Bv/fJEbq5kHP0+csdIjFQi08G2FB2p+BLwYeuP5Sz6NmJ56e+KcRm2Py2ULx1b4cbmN0g+JwKQPTF4OycUZlTWC4UiaM4Jslar0YtgbfxUmzygTD36eOGcEycGr0sK3FX5wBk+4QC+G3ngnDEWVdU+9PXGqmUfgBIEWjq3wSeJ4OWsEJn1g8nLW1d5f5UYwHEmzvxqcZs69GPbGP01U9se1Bz9PnP1xeP45t/BthZ8/IuvV0IuhN956nG0jJ0+9PXG2UZttc9HCsRW+7doEd2siMOkDk5c1S7mgvEYwHElzQZC6qtqLYW98FxMXFMmDnyfOBUG2elVb+LbCV2fgjDP0YuiNd25QeertiXNuuOyjPi0cW+H74CHy3CYCkz5wy63XnkxA/I1jAIa9TR24j+NtfbUX98B8N8w9eAfGu2Fsfbv1bLVB4L477i1sS9l+qVh78LlUbFrjdTS8hXXgu/s4H22TraRr9Y1STsV7IBAIBAKBQCAQCAQCgUAgEAgEAoFAIBAIBAKBQCAQCAQCgUAgEAgEAoFAIBAIBAKBQCAQCAQCgUAgEAgEAoFAIBAIBAKBQCAQCAQCgUAgEAgEAoFAIBAIBAKBQCAQCAQCgUAgEAgEAoFAIBAIBAKBQCAQCAQCgUAgEAgEAoFAIBAIBAKBQCAQCAQCgUAgEAgEAoFAIBAIBAKBQCAQCAQCgUAgEAgEAoFAIBAIBAKBQCAQCAQCgUAgEAgEAoFAIBAIBAKBQCAQCAQCgUAgEAgEAoFAIBAIBAKBQCAQCAQCgUAgEAgEAoFAIBAIBAKBQCAQCAQCgUAgEAgEAoFAIBAIBAKBQCAQCAQCgUAgEAgEAoFAIBAIBAKBQCAQCAQCgUAgEAgEAoFAIBAIBAKBQCAQCAQCh0DglluvPfk+t137v/g7TQxov95+Em1+mm1dG6PR/ufTlrX2rYVFm19em+f9YKT9e+eIiB8IBAIngACC4QTYDBYbCIy030iaRvERfGQERtpyJM2RqxnFZwiMtN9ImqzI+LghBKItN9QYwUogcEwEQhgcE/3dyx5pv5E0u3MaOewDgZG2HEmzD94jzzEERtpvJM0Yd5Fq3whEW+4b4cg/EDgRBEIYnEhDNdgcab+RNI3iI/jICIy05UiaI1czis8QGGm/kTRZkfFxQwhEW26oMYKVQOCYCIQwOCb6u5c90n4jaXbnNHLYBwIjbTmSZh+8R55jCIy030iaMe4i1b4RiLbcN8KRfyBwIgiEMDiRhmqwOdJ+I2kaxUfwkREYacuRNEeuZhSfITDSfiNpsiLj44YQiLbcUGMEK4HAMREIYXBM9Hcve6T9RtLszmnksA8ERtpyJM0+eI88xxAYab+RNGPcRap9IxBtuW+EI/9A4EQQCGFwIg3VYHOk/UbSNIqP4CMjMNKWI2mOXM0oPkNgpP1G0mRFxscNIRBtuaHGCFYCgWMisKMweLoZ3l9S0kvNfN/66k6SXkfSXN6ttLXwET5G0tTK3nvYSPuNpNl7RaKAHAF3/xtpy5E0OXMDnxnTryfpzgNpj5Xk3pJoh83RSPuNpNlcxYOhKwSiLaMjBAKBwKgwuFXSYyX9vSR+ROhXJH1eZbL7BknfMgDzC0vibvoXH0hbS5LzAa9/vPD3cpLyNLU8NxM2IsydaX5X0h9IetaFyr5vwvNjFuKd4te/kPWV35f0GEmfIumZ9lwZd/9ztuWE3ZE0kwyk985wYTz9mqTvknRN0osUcXlde0xXilg9yN0Gq5e8kOFI+42kqbDxsqndv6byXQQdCIGV2vJA3EYxgUAgsDcEOoXBZyTl+usl3SbpVSV9mKQnSvpzSc+VMTo6Aa492ed8vJGkN09/75jqQp0sjOczp8XIyO5BVv3DfOxsvyumnGn+K+HzETM1uYOk30nxUN7Ojf5C0ldIem1JD0oL0n+S9Id7VuLzPjuLqbMtJ3mMpJlkIH2UpH+UxGKev3eX9JlJDtBvGFP0DSMs8K9/JAv8XSV9rDHS8XS3QUeeq0Qdab+RNBVmHynpXyT9j6Rnr3x/7kGjfWlVXFZqy1V5iswCgUDgCAh0CIOXSYraR1bYvLukP5H0k9l3oxPgPhX4jD3dLdXnjfPAU/vc0X43quZMgyL2e8kK/xQ3Ek8/4Or0v5L+NFlfp9+e/hsKPMpqTs+XlJiH5oErf3aPHWdbTtgbSTPJ4DomYFPSU0r64DSu3qX88kjv7Kj980DZ7jYYyHunJCPtN5KmYBL3JxavHyDpryTV5oEiydm9jvalVYFYoS1X5ScyCwQCgSMh0CEMHpWUuadqsIr1HQuFUW0CJO1bS/o0SZ8v6f0k3csSpGeuwL+6pI9Lcd+t4Rf/0mlS+WJJH5+26/Msa3zw/ZwC/waSHpBl8qaSXlnSc0vCZeRzJb2JpKdNceDzU5MSe78sXf7xPpI+RNIXpjyeJfsSqz+KDx2KpyUAABDoSURBVJZKysUlifIWqaP9buTlTIMCD/a4SVHXGn27pEdL+tmGAj9X52dLdWZxAN5Y8NnNeaFUEN+jBH5Rwi3vW8bLi0r6oBTnEyXRTrnll3jsurxGajvyxzpMmvtaJtnzqRNP5r5VU+CJ/qOSvjtLx0cPL8TzjIFWny2KlJxtOUk3kmaSQVuBt2jfnFzs7pICnjHhypgzAmOUQKy6b59Z561f0BavIgnXLGQFVv6aD/3c+KfffpUk+jJjj78XNAYk3UPS+6f+8z6F+4+1AXGQPfRDeHmOLL19fIa0I/lwSSzs7m9fpGetDxZR/K8j7TeSpuDonST9pyTk1udI+u3KWLMkr5VwIN5bJLnN7iY7tjkh93DHQibSNi8h6Z6pr7AYhJawm5MxKQt5+dmlL3nG/1JdjN/Z5wptOZt/fBkIBAIngkCHMMAfmm1yL9kEaPGx0j9O0j9I+ro0KeOTjnUMdxwjU+AfIekvkwvDl0n667RFnyu+KLlYgH9YEnGwDP1Hmggsv5IPC59T4Ms035l4xnUC96GfSFZGeHyv5EbypcmNCIUXQZ0Tygd+/b8uiYUQPLJjQV0hDszx/SdIQmn81ooSkKJOHx3tdyOhMw1KD4utH0x/N9KnD0y0/y2JHYyaAr9UZyZe6oxCjQ81riqcq/jXhMdvSkIR/P60iKDv5PSeSaGgbBZU3yTp31NfYCFkBJZfKcl82FHEOMPBwqMklAza7/nTFy0Fnp0m8jTy8uIdA2X/s3JuejrbcpJuJM0kg2UF/uVT22KxhGxM28LogWkMfGNSBvGjp/0h6xcsHsvxTz9BwTdaGv+4f/1ikhHfJom/V0iJ4eXPJD1J0hekPkx/ZNEA0QbIFRTV70hjkjHxN0mJTdGuzkPAF2Oasc0YJ5/PsggpbdkHs6/7Po6030iagqufTvUg+JZURxbGJWGcof4/kMYl4xMZ8vPJcGPxWagjT9m9+xJJX51kPHMM6c04Uhu/lseSjCGel59d+pJ3/M/Vxeq0+FyhLRfLiAiBQCBwAgg4hcEdk98j1hIvlUoIEzTCOre4Y2XhQBSTIlY6yCZ7lKfczxLr998Wi4jPloTl3QihzzYvE7JRyYeF9yjwKIdMKlihjNhKZvGAYvj0KRCrIYpmrhyikOAziuXeCMsTkxcKBYTCSP4oMrmCkr5uP5ztN8nAmcYUeKzaKLVmGbe82O2AX9qwVOA9dcZiRZ1RkOzGISy25IkyxI6E0ZuluKYQYkXFGli6sXBuASU+P1BL/6Kcj7bMJL1DahMWITl9T1LaLKymwKO00J7kAfXw4h0DrT6birz94WzL2xOgId92DTx2IdyKwKZFjGXKwLIO2Zg2BR5lkAWvEQo/lnLGkfULFrj5+Edu/J2kh1kiSZ7xz1mXmgsNOyg/kymKZPvjkuANog2oA7uERoxT+t2HWoAkdqHow/nuAtZkxoydo6n1wSyLvo8j7TeSJuPqxRIW7JQZsTAqD7NSX+rNDpcRO2LIaLB8iAUm3Dg/kx+Sp58wfolrO2kt7Dwypoef0b7UM/5bdclgWf64Y1suFxAxAoFA4DQQcAoDrN4I1bctasXVcChR+d/TpDi5EoJii9KD0lsSShR5Y+2FbLLPJ8701dUOAArzHGEtx/pjlPNhYTx7FHjyQKk0lwDSP0/iG4tuTmCBFc7oAyX9W5GW71BEUAaYqFicgAG7CF3kbL9Jns40psCjoP9RspRaPoShaGMlhUoF3lNna+dPTnnYA0slSkCuvLGAJOytUqRPStZZ62uWlifKwm9kAV+esH3OLAwLPTtB+QFdyqOPWhlER0nldhUsbCgfv5TyIk8wgLy89IyBVp9NRd7+cLbl7QkOo8DjFkV/ZncKsrY2BZ4dLBa5NXc8i1sb/7hZsRM4R+X4rynwtH8ucyw/xrdZfmkDdpjKG4fYfTGjAWOXfoT7Vk4s0Elri8ZaH8zjd30+QpuDOwsq6/Pwi0ECuWaGF8JwI2RXo2xXlHTGFot+CIwZz9Y/UvDVg11N2saohZ1Hxnj5sbLKp6cvecc/ebfqUpY7+z7S/rMZxpeBQCBwmgh0CAOE9YcXtcTChpsDf1yxh+A1gZ4rIVwtx3e2PV1kc7VVbpOdTeClvyRpHpwmApsgUOAIw0KOEvlb6XYMz2HaXgWe7fScmOypU+7+w/csUthpMMLqwq4A26f5H1cUkh6fWlPguemkizra70a+zjSmwJMOizaKivkg41uMgmIW7FKB99TZ2rnsE7gecKtRSZT/rikQ14uyPSy+bWfbwVsmzdqiD79q3HSM8I/HTQtF2wgFnus0cQH43rQdX54H8PLSMwbysWO8VJ/OtpykHUkzyWDZhcYWt6+U0llbmwLPOQ/6FzdX4QOPIcAsrhZ3rfFfU+CtLXAFaRFtgEwrCYs7bQ7ZztnPFWObcY4lGdcQqNUH09d9j5H2G0mTuGI8MC7YnXib7I8zA8ivXAkHF8ZKjVjwmwJv+Fv/yOO/c8rXwlrYeWSMlx/K8swltb7kHf+U0aqL1dX13KEtXflHpEAgEDgRBDqEwa8mP8VWzXAtQKDXFHjzmeQquRphtTHhbhM4dw6XhNsCbiso8FiDfihtq2MJfkNJ3JSDf/0+FPjyTnuz4r1uwSSWw1yBZ8LHeoW/Zu0PtwFT4HEl6KKO9ruRrzNNrsBzkI93DvNB+KVTL6NSgffU2drZlDrL69OTa4O92xP3CVPg8UlGaaoRPGLtM2shk+b3VSKar7UpEfgxl1dh1lxoyqy8vPSMgVNX4NlNo7+YNbvW1hx6x9XkR5I1lj6Fsmhx1xr/NaXL2h7XkBa12gA5YAo8P/SEzOMQZm1sv2bKvNUHW2XPhjvH7ySPkTQpAw6hUkfGR/mHSyOGCCPGfe4+aOE8WUSbjDfczCUuj4cRg/KMWth5ZIyXH+9cUutL3vFPfVp1sbq6nju0pSv/iBQIBAIngkCHMMDlAzeS2i0M1HZOgTdrNdujJfEdSnnpL5u7MlgaFHWUYYgbAxD0pVsO1q8tKfCGm/l5J/Ynj60r8DCL0oJ///MmhYsrJI1KBd5TZ1PURhR4DrrRZ/IDzcYLCwCs5kZzk+bjkzuEHbrEMpiTR4H38tIzBlrKY87b1eeO8Xsj7UiaG4mvf5jzgUcJxyfcfMlJ0WpryxZFl7HMDU4W11zqLA5Pxj/uXJB3/NeULnMJxPLfolYb5Ao8i2/4xo1ijub64Fy66ncj7TeSJhWOOyLjvkb8BgD1Z0EEcQsPSn5J7NyxoDMFHrck0r1lGTH9UBrfGbWw88gYLz+79CXv+Kc+rbpYXV3PHdrSlX9ECgQCgRNBoEMY4MfIYTCs3mZlt1rio4ywRPBypRpUToBcvYdiRdyc+JEVbh6xhYFtr7Jla9vqxGeLk3vJ7bYKU7peLcuMg264WmxJgedGGnDhMGhO+JCa//wpKPC4NFAPrFocPsvbplTgPXU2RW1EgafN4YXt9pxQDNjupy8azU2a75F2cHB14GaakjwKfA8v3jFQjp2SrxvvHeN3pzQ3El//0FLgcanCks6Omt3kQ4q8renrnPXIf/TNzsHgjmZxy/GPNR8rrrmleMc/LnYoj7lrFDyxyMANIyfyhn+o1Qa5Ak88LNBPKMYDspJdH7vxZq4PXi+t4/8B2xx5ykKZcVIjZDk3f3HtLWSHzW3nIQVfXRfKeDUFnvBflvRjkszVjTDmFaz6xDVqYeeRMV5+dulLPeO/VRerq+s50v6ujCNSIBAInBYCncIAoYkrA4o01/9xTzc/Lc91kIRjkTEqJ0C2TbkmEGWP21ywsDORc5iJA0lG3ByAAMdFAuvP2yU/d64hQ7hjATbCrQcrKn7P5IEPPJPplhR4eEVx45cr8bOm3lx7iJuH7TqcggJPPfBNp22oR06lAs93S3U2RW1EgSd/+g6HgOl/9DsWRCh49M384OHcpIkFlcUjdbK2yOvlUeB7ePGOgXLs5DxNPneO36u0I2kmhV73gQc3Dvbyxw0e+D7Tx7lRimtRc8rbGoWN8UmfwSWO8YCyy61MLNItLot9xj8H57GiM865VjJX/D3jn9uTaF8WdVxfyV3jEPkie1hEwwN1QFlF6YNabVAq8PxKLwsEXEfwEceFDnkIv/QvaK4Ppij+x0j7jaRJbcvZJzPK1JjEEo5cZ4HFop625ddauRKX9uWMA4e/cx948uFGG87RcJaFeYSdVOQ3Z01oL6M57JZkTA8/u/SlNWSR1XfxOdiWi/lGhEAgEDgxBAaEAVYZlHcmV7ZL8QFkaxslNCf8W8tDr9wEwoSJco4yyOFTfmQjJyx3XPHGdYrcUMJWPEp5abUjDVfOcdMA1hxuDMDKjcLP3b9GNT74jm1dyqn5YZZpynfSY9EjfXkQjgN6tktgPGCpYqcBixOYYfnLLfJs6ZNX/iMzlnb2OdB+3msEsbSXBwnxh4XP0nWFbeT8ik14XqozVlfyyhUy0uEDS/8qifv3yx/IwbpKHhxGBVuUeVxVckKhyi1/+Xd8xuUKBSS/O97icDc1d8N7yMML+XjGQK2/VXnYY/tXy0uBYALu9kdfwSrPgeTS0k2Ssq1ZhLOI5Q52ZAHtY+5LpsAzLulXXPXI+EcRJJ+cPOOf+PxYE4oluyyclTHiQDJXh6K8fW1xy1arDVi88l1OnL3BxYz6sHNAP8zHyFIfzPNa/HzANmfRg9yaI9qAfmByEEUelyJwQMHmM+3GgeXy11uxXrNQYheDa0RZiNshdCtzDrslGUMeXn527Uue8T9XF6vv4nOk/RczjQiBQCBwegiEMDi9Nss5Hmm/kTR5mWf0mUUiuzosAk+SRtpyJM0BwTEFvtyZOSAL2y5qpP1G0gygwGKc3wqxnQfLws5H5Tc48QNwtTMIKP4s2NagHn7WKO8geRyoLQ9SlygkEAgEdkAghMEO4G0g6Uj7jaTZQFXXZAEFA4sbFlnujMdKd5I00pYjaQ4ITijwC2CPtN9ImgU2al/zS8O4UPHbCRwMZYGMaxqHYNmdyHdnuDaYSxFwa+KWK24dYscVtybC1qAeftYo7yB5HKgtD1KXKCQQCAR2QCCEwQ7gbSDpSPuNpNlAVddkwX5eHf9b/NJPlkbaciTNAQEKBX4B7JH2G0mzwEbra6zquD2iiOPLzlkf/NpLF0vOQvCDWNwqRDz+OBBrV9W28u8N9/LTm+/R4h+wLY9Wxyg4EAgEHAiEMHCAtOEoI+03kmbDEIywdtfil15H8thEmpG2HElzwMri18wh2Nxae8Dit1/USPuNpNkRCazvHCDmYPIScQMZ1vJ9Ug8/++Rj57yP0JY78xwZBAKBwB4QCGGwB1APmOVI+42kOWCVoqgOBEbaciRNB0sRdc8IjLTfSJo9VyOyH0Qg2nIQuEgWCJwbAiEMTrtFR9pvJM1po3S+3I+05Uia80Xw9Go20n4jaU4PmcvgONryMto5ahkILCIQwmARok1HGGm/kTSbBuGCmRtpy5E0Fwzx5qo+0n4jaTZX8WDoCoFoy+gIgUAgcIXALbdeezICIf5OEwPar7crR5ufZlvXxmi0//m0Za19a2HR5pfX5nk/GGn/3jki4gcCgUAgEAgEAoFAIBAIBAKBQCAQCAQCgUAgEAgEAoFAIBAIBAKBQCAQCAQCgUAgEAgEAoFAIBAIBAKBQCAQCAQCgUAgEAgEAoFAIBAIBAKBQCAQCAQCgUAgEAgEAoFAIBAIBAKBQCAQCAQCgUAgEAgEAoFAIBAIBAKBQCAQCAQCgUAgEAgEAoFAIBAIBAKBwMki8P+javJzZQ1r5gAAAABJRU5ErkJggg==;" parent="iVdUVeyU8QLMkpsD4F-b-1" vertex="1">
          <mxGeometry x="113.21" y="520" width="606.79" height="68.59" as="geometry" />
        </mxCell>
        <mxCell id="iVdUVeyU8QLMkpsD4F-b-79" value="&lt;font style=&quot;font-size: 20px&quot;&gt;Base&lt;/font&gt;" style="rounded=0;whiteSpace=wrap;html=1;fontSize=15;verticalAlign=top;" parent="iVdUVeyU8QLMkpsD4F-b-1" vertex="1">
          <mxGeometry x="100" y="600" width="640" height="40" as="geometry" />
        </mxCell>
        <mxCell id="iVdUVeyU8QLMkpsD4F-b-83" value="" style="shape=flexArrow;endArrow=classic;startArrow=classic;html=1;fontSize=15;entryX=0.75;entryY=1;entryDx=0;entryDy=0;exitX=0.824;exitY=0.476;exitDx=0;exitDy=0;exitPerimeter=0;" parent="iVdUVeyU8QLMkpsD4F-b-1" source="iVdUVeyU8QLMkpsD4F-b-44" target="iVdUVeyU8QLMkpsD4F-b-30" edge="1">
          <mxGeometry width="50" height="50" relative="1" as="geometry">
            <mxPoint x="330" y="280" as="sourcePoint" />
            <mxPoint x="380" y="230" as="targetPoint" />
          </mxGeometry>
        </mxCell>
        <mxCell id="iVdUVeyU8QLMkpsD4F-b-25" value="" style="endArrow=none;dashed=1;html=1;dashPattern=1 3;strokeWidth=2;" parent="iVdUVeyU8QLMkpsD4F-b-1" edge="1">
          <mxGeometry width="50" height="50" relative="1" as="geometry">
            <mxPoint x="282.5" y="619.5" as="sourcePoint" />
            <mxPoint x="362.5" y="619.5" as="targetPoint" />
          </mxGeometry>
        </mxCell>
        <mxCell id="iVdUVeyU8QLMkpsD4F-b-84" value="" style="endArrow=none;dashed=1;html=1;dashPattern=1 3;strokeWidth=2;" parent="iVdUVeyU8QLMkpsD4F-b-1" edge="1">
          <mxGeometry width="50" height="50" relative="1" as="geometry">
            <mxPoint x="226.75" y="450" as="sourcePoint" />
            <mxPoint x="306.75" y="450" as="targetPoint" />
          </mxGeometry>
        </mxCell>
        <mxCell id="iVdUVeyU8QLMkpsD4F-b-85" value="engine" style="rounded=0;whiteSpace=wrap;html=1;fontSize=10;" parent="iVdUVeyU8QLMkpsD4F-b-1" vertex="1">
          <mxGeometry x="105" y="120" width="50" height="30" as="geometry" />
        </mxCell>
        <mxCell id="iVdUVeyU8QLMkpsD4F-b-86" value="engine" style="rounded=0;whiteSpace=wrap;html=1;fontSize=10;" parent="iVdUVeyU8QLMkpsD4F-b-1" vertex="1">
          <mxGeometry x="241.75" y="120" width="50" height="30" as="geometry" />
        </mxCell>
        <mxCell id="iVdUVeyU8QLMkpsD4F-b-89" value="" style="shape=flexArrow;endArrow=classic;startArrow=classic;html=1;fontSize=15;exitX=0.5;exitY=0;exitDx=0;exitDy=0;entryX=0.5;entryY=1;entryDx=0;entryDy=0;" parent="iVdUVeyU8QLMkpsD4F-b-1" source="iVdUVeyU8QLMkpsD4F-b-48" target="iVdUVeyU8QLMkpsD4F-b-85" edge="1">
          <mxGeometry width="50" height="50" relative="1" as="geometry">
            <mxPoint x="330" y="280" as="sourcePoint" />
            <mxPoint x="380" y="230" as="targetPoint" />
          </mxGeometry>
        </mxCell>
        <mxCell id="iVdUVeyU8QLMkpsD4F-b-90" value="" style="shape=flexArrow;endArrow=classic;startArrow=classic;html=1;fontSize=15;exitX=0.5;exitY=0;exitDx=0;exitDy=0;entryX=0.5;entryY=1;entryDx=0;entryDy=0;" parent="iVdUVeyU8QLMkpsD4F-b-1" edge="1">
          <mxGeometry width="50" height="50" relative="1" as="geometry">
            <mxPoint x="266.25" y="320" as="sourcePoint" />
            <mxPoint x="266.25" y="150" as="targetPoint" />
          </mxGeometry>
        </mxCell>
        <mxCell id="iVdUVeyU8QLMkpsD4F-b-91" value="" style="shape=flexArrow;endArrow=classic;startArrow=classic;html=1;fontSize=15;exitX=0.5;exitY=0;exitDx=0;exitDy=0;entryX=0.5;entryY=1;entryDx=0;entryDy=0;" parent="iVdUVeyU8QLMkpsD4F-b-1" edge="1">
          <mxGeometry width="50" height="50" relative="1" as="geometry">
            <mxPoint x="400" y="320" as="sourcePoint" />
            <mxPoint x="400" y="150" as="targetPoint" />
          </mxGeometry>
        </mxCell>
        <mxCell id="iVdUVeyU8QLMkpsD4F-b-93" value="engine" style="rounded=0;whiteSpace=wrap;html=1;fontSize=10;" parent="iVdUVeyU8QLMkpsD4F-b-1" vertex="1">
          <mxGeometry x="370" y="120" width="50" height="30" as="geometry" />
        </mxCell>
        <mxCell id="iVdUVeyU8QLMkpsD4F-b-98" value="" style="edgeStyle=orthogonalEdgeStyle;rounded=0;orthogonalLoop=1;jettySize=auto;html=1;fontSize=15;startArrow=classic;startFill=1;endArrow=none;endFill=0;" parent="iVdUVeyU8QLMkpsD4F-b-1" source="iVdUVeyU8QLMkpsD4F-b-94" target="iVdUVeyU8QLMkpsD4F-b-29" edge="1">
          <mxGeometry relative="1" as="geometry" />
        </mxCell>
        <mxCell id="iVdUVeyU8QLMkpsD4F-b-99" value="API" style="edgeLabel;html=1;align=center;verticalAlign=middle;resizable=0;points=[];fontSize=15;" parent="iVdUVeyU8QLMkpsD4F-b-98" vertex="1" connectable="0">
          <mxGeometry x="-0.165" relative="1" as="geometry">
            <mxPoint as="offset" />
          </mxGeometry>
        </mxCell>
        <mxCell id="iVdUVeyU8QLMkpsD4F-b-94" value="Agent" style="rounded=0;whiteSpace=wrap;html=1;fontSize=15;" parent="iVdUVeyU8QLMkpsD4F-b-1" vertex="1">
          <mxGeometry x="130.63" y="10" width="120" height="60" as="geometry" />
        </mxCell>
        <mxCell id="iVdUVeyU8QLMkpsD4F-b-95" value="" style="endArrow=classic;startArrow=classic;html=1;fontSize=15;entryX=0;entryY=1;entryDx=0;entryDy=0;exitX=0.5;exitY=0;exitDx=0;exitDy=0;" parent="iVdUVeyU8QLMkpsD4F-b-1" source="iVdUVeyU8QLMkpsD4F-b-85" target="iVdUVeyU8QLMkpsD4F-b-94" edge="1">
          <mxGeometry width="50" height="50" relative="1" as="geometry">
            <mxPoint x="330" y="240" as="sourcePoint" />
            <mxPoint x="380" y="190" as="targetPoint" />
          </mxGeometry>
        </mxCell>
        <mxCell id="iVdUVeyU8QLMkpsD4F-b-96" value="" style="endArrow=classic;startArrow=classic;html=1;fontSize=15;entryX=0.5;entryY=1;entryDx=0;entryDy=0;" parent="iVdUVeyU8QLMkpsD4F-b-1" source="iVdUVeyU8QLMkpsD4F-b-86" target="iVdUVeyU8QLMkpsD4F-b-94" edge="1">
          <mxGeometry width="50" height="50" relative="1" as="geometry">
            <mxPoint x="330" y="240" as="sourcePoint" />
            <mxPoint x="270" y="70" as="targetPoint" />
          </mxGeometry>
        </mxCell>
        <mxCell id="4W-rLuOooxGimqZKcHC3-2" value="" style="endArrow=classic;startArrow=classic;html=1;entryX=0.25;entryY=1;entryDx=0;entryDy=0;exitX=0.5;exitY=0;exitDx=0;exitDy=0;" parent="iVdUVeyU8QLMkpsD4F-b-1" source="iVdUVeyU8QLMkpsD4F-b-93" target="iVdUVeyU8QLMkpsD4F-b-30" edge="1">
          <mxGeometry width="50" height="50" relative="1" as="geometry">
            <mxPoint x="390" y="270" as="sourcePoint" />
            <mxPoint x="440" y="220" as="targetPoint" />
          </mxGeometry>
        </mxCell>
      </root>
    </mxGraphModel>
  </diagram>
  <diagram id="1ym9SzUCGR2-msC4k4w-" name="Page-8">
    <mxGraphModel dx="1505" dy="613" grid="1" gridSize="10" guides="1" tooltips="1" connect="1" arrows="1" fold="1" page="1" pageScale="1" pageWidth="827" pageHeight="1169" math="0" shadow="0">
      <root>
        <mxCell id="Q4A1wfu8Y92zojMstxQ6-0" />
        <mxCell id="Q4A1wfu8Y92zojMstxQ6-1" parent="Q4A1wfu8Y92zojMstxQ6-0" />
        <mxCell id="RFZf4q4TXrgR0oPTmKBk-1" style="edgeStyle=orthogonalEdgeStyle;rounded=0;orthogonalLoop=1;jettySize=auto;html=1;entryX=0.5;entryY=1;entryDx=0;entryDy=0;startArrow=classic;startFill=1;dashed=1;" parent="Q4A1wfu8Y92zojMstxQ6-1" source="RFZf4q4TXrgR0oPTmKBk-0" target="Q4A1wfu8Y92zojMstxQ6-3" edge="1">
          <mxGeometry relative="1" as="geometry" />
        </mxCell>
        <mxCell id="RFZf4q4TXrgR0oPTmKBk-0" value="&amp;nbsp; &amp;nbsp; &amp;nbsp; SDK&amp;nbsp;" style="rounded=0;html=1;align=right;fontSize=20;" parent="Q4A1wfu8Y92zojMstxQ6-1" vertex="1">
          <mxGeometry x="-30" y="40" width="190" height="520" as="geometry" />
        </mxCell>
        <mxCell id="Q4A1wfu8Y92zojMstxQ6-2" value="Windows&lt;br&gt;SDK" style="rounded=0;whiteSpace=wrap;html=1;direction=south;" parent="Q4A1wfu8Y92zojMstxQ6-1" vertex="1">
          <mxGeometry x="35" y="170" width="60" height="60" as="geometry" />
        </mxCell>
        <mxCell id="Q4A1wfu8Y92zojMstxQ6-3" value="网关" style="rounded=0;whiteSpace=wrap;html=1;direction=south;" parent="Q4A1wfu8Y92zojMstxQ6-1" vertex="1">
          <mxGeometry x="220" y="240" width="60" height="120" as="geometry" />
        </mxCell>
        <mxCell id="Q4A1wfu8Y92zojMstxQ6-27" style="edgeStyle=orthogonalEdgeStyle;rounded=0;orthogonalLoop=1;jettySize=auto;html=1;entryX=0.5;entryY=1;entryDx=0;entryDy=0;dashed=1;exitX=0;exitY=0.5;exitDx=0;exitDy=0;startArrow=classic;startFill=1;" parent="Q4A1wfu8Y92zojMstxQ6-1" source="Q4A1wfu8Y92zojMstxQ6-4" target="Q4A1wfu8Y92zojMstxQ6-6" edge="1">
          <mxGeometry relative="1" as="geometry" />
        </mxCell>
        <mxCell id="Q4A1wfu8Y92zojMstxQ6-28" style="edgeStyle=orthogonalEdgeStyle;rounded=0;orthogonalLoop=1;jettySize=auto;html=1;exitX=1;exitY=0.5;exitDx=0;exitDy=0;entryX=0.5;entryY=1;entryDx=0;entryDy=0;dashed=1;startArrow=classic;startFill=1;" parent="Q4A1wfu8Y92zojMstxQ6-1" source="Q4A1wfu8Y92zojMstxQ6-4" target="Q4A1wfu8Y92zojMstxQ6-7" edge="1">
          <mxGeometry relative="1" as="geometry" />
        </mxCell>
        <mxCell id="Q4A1wfu8Y92zojMstxQ6-29" style="edgeStyle=orthogonalEdgeStyle;rounded=0;orthogonalLoop=1;jettySize=auto;html=1;exitX=0.5;exitY=0;exitDx=0;exitDy=0;entryX=0.5;entryY=1;entryDx=0;entryDy=0;dashed=1;startArrow=classic;startFill=1;" parent="Q4A1wfu8Y92zojMstxQ6-1" source="Q4A1wfu8Y92zojMstxQ6-4" target="Q4A1wfu8Y92zojMstxQ6-5" edge="1">
          <mxGeometry relative="1" as="geometry" />
        </mxCell>
        <mxCell id="Q4A1wfu8Y92zojMstxQ6-30" style="edgeStyle=orthogonalEdgeStyle;rounded=0;orthogonalLoop=1;jettySize=auto;html=1;exitX=1;exitY=0;exitDx=0;exitDy=0;entryX=0.5;entryY=1;entryDx=0;entryDy=0;dashed=1;startArrow=classic;startFill=1;" parent="Q4A1wfu8Y92zojMstxQ6-1" source="Q4A1wfu8Y92zojMstxQ6-4" target="Q4A1wfu8Y92zojMstxQ6-8" edge="1">
          <mxGeometry relative="1" as="geometry">
            <Array as="points">
              <mxPoint x="450" y="360" />
              <mxPoint x="450" y="360" />
            </Array>
          </mxGeometry>
        </mxCell>
        <mxCell id="Q4A1wfu8Y92zojMstxQ6-4" value="信令" style="rounded=0;whiteSpace=wrap;html=1;direction=south;" parent="Q4A1wfu8Y92zojMstxQ6-1" vertex="1">
          <mxGeometry x="340" y="240" width="60" height="120" as="geometry" />
        </mxCell>
        <mxCell id="Q4A1wfu8Y92zojMstxQ6-33" style="edgeStyle=orthogonalEdgeStyle;rounded=0;orthogonalLoop=1;jettySize=auto;html=1;exitX=1;exitY=0.5;exitDx=0;exitDy=0;startArrow=classic;startFill=1;fillColor=#f8cecc;strokeColor=#b85450;" parent="Q4A1wfu8Y92zojMstxQ6-1" source="Q4A1wfu8Y92zojMstxQ6-5" target="Q4A1wfu8Y92zojMstxQ6-7" edge="1">
          <mxGeometry relative="1" as="geometry" />
        </mxCell>
        <mxCell id="RFZf4q4TXrgR0oPTmKBk-5" style="edgeStyle=orthogonalEdgeStyle;rounded=0;orthogonalLoop=1;jettySize=auto;html=1;entryX=0.75;entryY=1;entryDx=0;entryDy=0;startArrow=classic;startFill=1;fontSize=20;fillColor=#f8cecc;strokeColor=#b85450;" parent="Q4A1wfu8Y92zojMstxQ6-1" source="Q4A1wfu8Y92zojMstxQ6-5" target="Q4A1wfu8Y92zojMstxQ6-9" edge="1">
          <mxGeometry relative="1" as="geometry" />
        </mxCell>
        <mxCell id="RFZf4q4TXrgR0oPTmKBk-6" style="edgeStyle=orthogonalEdgeStyle;rounded=0;orthogonalLoop=1;jettySize=auto;html=1;exitX=0.5;exitY=0;exitDx=0;exitDy=0;entryX=0.25;entryY=1;entryDx=0;entryDy=0;startArrow=classic;startFill=1;fontSize=20;fillColor=#f8cecc;strokeColor=#b85450;" parent="Q4A1wfu8Y92zojMstxQ6-1" source="Q4A1wfu8Y92zojMstxQ6-5" target="Q4A1wfu8Y92zojMstxQ6-8" edge="1">
          <mxGeometry relative="1" as="geometry" />
        </mxCell>
        <mxCell id="Q4A1wfu8Y92zojMstxQ6-5" value="SFU" style="rounded=0;whiteSpace=wrap;html=1;direction=south;" parent="Q4A1wfu8Y92zojMstxQ6-1" vertex="1">
          <mxGeometry x="480" y="270" width="60" height="60" as="geometry" />
        </mxCell>
        <mxCell id="Q4A1wfu8Y92zojMstxQ6-31" style="edgeStyle=orthogonalEdgeStyle;rounded=0;orthogonalLoop=1;jettySize=auto;html=1;entryX=0;entryY=0.5;entryDx=0;entryDy=0;startArrow=classic;startFill=1;fillColor=#f8cecc;strokeColor=#b85450;" parent="Q4A1wfu8Y92zojMstxQ6-1" source="Q4A1wfu8Y92zojMstxQ6-6" target="Q4A1wfu8Y92zojMstxQ6-9" edge="1">
          <mxGeometry relative="1" as="geometry" />
        </mxCell>
        <mxCell id="Q4A1wfu8Y92zojMstxQ6-32" style="edgeStyle=orthogonalEdgeStyle;rounded=0;orthogonalLoop=1;jettySize=auto;html=1;exitX=1;exitY=0.5;exitDx=0;exitDy=0;entryX=0;entryY=0.5;entryDx=0;entryDy=0;startArrow=classic;startFill=1;fillColor=#f8cecc;strokeColor=#b85450;" parent="Q4A1wfu8Y92zojMstxQ6-1" source="Q4A1wfu8Y92zojMstxQ6-6" target="Q4A1wfu8Y92zojMstxQ6-5" edge="1">
          <mxGeometry relative="1" as="geometry" />
        </mxCell>
        <mxCell id="RFZf4q4TXrgR0oPTmKBk-2" style="edgeStyle=orthogonalEdgeStyle;rounded=0;orthogonalLoop=1;jettySize=auto;html=1;startArrow=classic;startFill=1;fontSize=20;fillColor=#f8cecc;strokeColor=#b85450;" parent="Q4A1wfu8Y92zojMstxQ6-1" source="Q4A1wfu8Y92zojMstxQ6-6" edge="1">
          <mxGeometry relative="1" as="geometry">
            <mxPoint x="160" y="80" as="targetPoint" />
            <Array as="points">
              <mxPoint x="510" y="80" />
            </Array>
          </mxGeometry>
        </mxCell>
        <mxCell id="Q4A1wfu8Y92zojMstxQ6-6" value="SFU" style="rounded=0;whiteSpace=wrap;html=1;direction=south;" parent="Q4A1wfu8Y92zojMstxQ6-1" vertex="1">
          <mxGeometry x="480" y="140" width="60" height="60" as="geometry" />
        </mxCell>
        <mxCell id="Q4A1wfu8Y92zojMstxQ6-35" style="edgeStyle=orthogonalEdgeStyle;rounded=0;orthogonalLoop=1;jettySize=auto;html=1;exitX=0.5;exitY=0;exitDx=0;exitDy=0;entryX=1;entryY=0.5;entryDx=0;entryDy=0;startArrow=classic;startFill=1;fillColor=#f8cecc;strokeColor=#b85450;" parent="Q4A1wfu8Y92zojMstxQ6-1" source="Q4A1wfu8Y92zojMstxQ6-7" target="Q4A1wfu8Y92zojMstxQ6-8" edge="1">
          <mxGeometry relative="1" as="geometry" />
        </mxCell>
        <mxCell id="RFZf4q4TXrgR0oPTmKBk-4" style="edgeStyle=orthogonalEdgeStyle;rounded=0;orthogonalLoop=1;jettySize=auto;html=1;entryX=1.001;entryY=0.922;entryDx=0;entryDy=0;entryPerimeter=0;startArrow=classic;startFill=1;fontSize=20;fillColor=#f8cecc;strokeColor=#b85450;" parent="Q4A1wfu8Y92zojMstxQ6-1" source="Q4A1wfu8Y92zojMstxQ6-7" target="RFZf4q4TXrgR0oPTmKBk-0" edge="1">
          <mxGeometry relative="1" as="geometry">
            <Array as="points">
              <mxPoint x="510" y="519" />
            </Array>
          </mxGeometry>
        </mxCell>
        <mxCell id="Q4A1wfu8Y92zojMstxQ6-7" value="SFU" style="rounded=0;whiteSpace=wrap;html=1;direction=south;" parent="Q4A1wfu8Y92zojMstxQ6-1" vertex="1">
          <mxGeometry x="480" y="400" width="60" height="60" as="geometry" />
        </mxCell>
        <mxCell id="Q4A1wfu8Y92zojMstxQ6-8" value="MCU" style="rounded=0;whiteSpace=wrap;html=1;direction=south;" parent="Q4A1wfu8Y92zojMstxQ6-1" vertex="1">
          <mxGeometry x="600" y="330" width="60" height="60" as="geometry" />
        </mxCell>
        <mxCell id="Q4A1wfu8Y92zojMstxQ6-9" value="MCU" style="rounded=0;whiteSpace=wrap;html=1;direction=south;" parent="Q4A1wfu8Y92zojMstxQ6-1" vertex="1">
          <mxGeometry x="600" y="210" width="60" height="60" as="geometry" />
        </mxCell>
        <mxCell id="Q4A1wfu8Y92zojMstxQ6-12" value="iOS&lt;br&gt;SDK" style="rounded=0;whiteSpace=wrap;html=1;direction=south;" parent="Q4A1wfu8Y92zojMstxQ6-1" vertex="1">
          <mxGeometry x="35" y="270" width="60" height="60" as="geometry" />
        </mxCell>
        <mxCell id="Q4A1wfu8Y92zojMstxQ6-13" value="Android&lt;br&gt;SDK" style="rounded=0;whiteSpace=wrap;html=1;direction=south;" parent="Q4A1wfu8Y92zojMstxQ6-1" vertex="1">
          <mxGeometry x="35" y="370" width="60" height="60" as="geometry" />
        </mxCell>
        <mxCell id="Q4A1wfu8Y92zojMstxQ6-14" value="Web&lt;br&gt;SDK" style="rounded=0;whiteSpace=wrap;html=1;direction=south;" parent="Q4A1wfu8Y92zojMstxQ6-1" vertex="1">
          <mxGeometry x="35" y="70" width="60" height="60" as="geometry" />
        </mxCell>
        <mxCell id="Q4A1wfu8Y92zojMstxQ6-15" value="Mac&lt;br&gt;SDK" style="rounded=0;whiteSpace=wrap;html=1;direction=south;" parent="Q4A1wfu8Y92zojMstxQ6-1" vertex="1">
          <mxGeometry x="35" y="470" width="60" height="60" as="geometry" />
        </mxCell>
        <mxCell id="Q4A1wfu8Y92zojMstxQ6-23" value="" style="endArrow=classic;startArrow=classic;html=1;exitX=0.5;exitY=0;exitDx=0;exitDy=0;entryX=0.5;entryY=1;entryDx=0;entryDy=0;dashed=1;" parent="Q4A1wfu8Y92zojMstxQ6-1" source="Q4A1wfu8Y92zojMstxQ6-3" target="Q4A1wfu8Y92zojMstxQ6-4" edge="1">
          <mxGeometry width="50" height="50" relative="1" as="geometry">
            <mxPoint x="270" y="320" as="sourcePoint" />
            <mxPoint x="320" y="270" as="targetPoint" />
          </mxGeometry>
        </mxCell>
        <mxCell id="Q4A1wfu8Y92zojMstxQ6-26" value="" style="endArrow=classic;startArrow=classic;html=1;dashed=1;entryX=0.5;entryY=1;entryDx=0;entryDy=0;exitX=0;exitY=0;exitDx=0;exitDy=0;" parent="Q4A1wfu8Y92zojMstxQ6-1" source="Q4A1wfu8Y92zojMstxQ6-4" target="Q4A1wfu8Y92zojMstxQ6-9" edge="1">
          <mxGeometry width="50" height="50" relative="1" as="geometry">
            <mxPoint x="330" y="320" as="sourcePoint" />
            <mxPoint x="380" y="270" as="targetPoint" />
          </mxGeometry>
        </mxCell>
      </root>
    </mxGraphModel>
  </diagram>
  <diagram id="103KpAgNOKkrP6jyf7s6" name="Page-9">
    <mxGraphModel dx="678" dy="613" grid="1" gridSize="10" guides="1" tooltips="1" connect="1" arrows="1" fold="1" page="1" pageScale="1" pageWidth="827" pageHeight="1169" math="0" shadow="0">
      <root>
        <mxCell id="HhKyOYvSPRRiFj857cIO-0" />
        <mxCell id="HhKyOYvSPRRiFj857cIO-1" parent="HhKyOYvSPRRiFj857cIO-0" />
        <mxCell id="g3muhfpD97RmUfroeaM7-7" value="WebRTC" style="edgeStyle=orthogonalEdgeStyle;rounded=0;orthogonalLoop=1;jettySize=auto;html=1;exitX=1;exitY=0.5;exitDx=0;exitDy=0;entryX=0;entryY=0.5;entryDx=0;entryDy=0;startArrow=classic;startFill=1;fontSize=12;" edge="1" parent="HhKyOYvSPRRiFj857cIO-1" source="R9XIZ5x7WulV2ABCOD7--0" target="g3muhfpD97RmUfroeaM7-2">
          <mxGeometry relative="1" as="geometry" />
        </mxCell>
        <mxCell id="R9XIZ5x7WulV2ABCOD7--0" value="SFU" style="rounded=0;whiteSpace=wrap;html=1;direction=south;" vertex="1" parent="HhKyOYvSPRRiFj857cIO-1">
          <mxGeometry x="500" y="280" width="60" height="60" as="geometry" />
        </mxCell>
        <mxCell id="g3muhfpD97RmUfroeaM7-6" style="edgeStyle=orthogonalEdgeStyle;rounded=0;orthogonalLoop=1;jettySize=auto;html=1;exitX=0.5;exitY=0;exitDx=0;exitDy=0;entryX=0.5;entryY=1;entryDx=0;entryDy=0;startArrow=classic;startFill=1;fontSize=20;" edge="1" parent="HhKyOYvSPRRiFj857cIO-1" source="g3muhfpD97RmUfroeaM7-0" target="R9XIZ5x7WulV2ABCOD7--0">
          <mxGeometry relative="1" as="geometry" />
        </mxCell>
        <mxCell id="g3muhfpD97RmUfroeaM7-13" value="RTP" style="edgeLabel;html=1;align=center;verticalAlign=middle;resizable=0;points=[];fontSize=12;" vertex="1" connectable="0" parent="g3muhfpD97RmUfroeaM7-6">
          <mxGeometry x="0.0125" relative="1" as="geometry">
            <mxPoint as="offset" />
          </mxGeometry>
        </mxCell>
        <mxCell id="g3muhfpD97RmUfroeaM7-0" value="RTMP&lt;br&gt;gateway" style="rounded=0;whiteSpace=wrap;html=1;direction=south;" vertex="1" parent="HhKyOYvSPRRiFj857cIO-1">
          <mxGeometry x="280" y="280" width="60" height="60" as="geometry" />
        </mxCell>
        <mxCell id="g3muhfpD97RmUfroeaM7-8" style="edgeStyle=orthogonalEdgeStyle;rounded=0;orthogonalLoop=1;jettySize=auto;html=1;exitX=0;exitY=0.5;exitDx=0;exitDy=0;entryX=1;entryY=0.5;entryDx=0;entryDy=0;startArrow=classic;startFill=1;fontSize=20;" edge="1" parent="HhKyOYvSPRRiFj857cIO-1" source="g3muhfpD97RmUfroeaM7-1" target="g3muhfpD97RmUfroeaM7-0">
          <mxGeometry relative="1" as="geometry" />
        </mxCell>
        <mxCell id="g3muhfpD97RmUfroeaM7-9" value="RTMP" style="edgeLabel;html=1;align=center;verticalAlign=middle;resizable=0;points=[];fontSize=12;" vertex="1" connectable="0" parent="g3muhfpD97RmUfroeaM7-8">
          <mxGeometry x="0.0329" y="1" relative="1" as="geometry">
            <mxPoint as="offset" />
          </mxGeometry>
        </mxCell>
        <mxCell id="g3muhfpD97RmUfroeaM7-1" value="微信&lt;br&gt;小程序&lt;br&gt;SDK" style="rounded=0;whiteSpace=wrap;html=1;direction=south;" vertex="1" parent="HhKyOYvSPRRiFj857cIO-1">
          <mxGeometry x="280" y="400" width="60" height="60" as="geometry" />
        </mxCell>
        <mxCell id="g3muhfpD97RmUfroeaM7-2" value="SDK" style="rounded=0;whiteSpace=wrap;html=1;direction=south;" vertex="1" parent="HhKyOYvSPRRiFj857cIO-1">
          <mxGeometry x="500" y="400" width="60" height="60" as="geometry" />
        </mxCell>
      </root>
    </mxGraphModel>
  </diagram>
  <diagram id="evdR6w_HFoO4wvsmb_Ly" name="Page-10">
    <mxGraphModel dx="678" dy="613" grid="1" gridSize="10" guides="1" tooltips="1" connect="1" arrows="1" fold="1" page="1" pageScale="1" pageWidth="827" pageHeight="1169" math="0" shadow="0">
      <root>
        <mxCell id="2Wrs2S8qe6BhIUOV0hLt-0" />
        <mxCell id="2Wrs2S8qe6BhIUOV0hLt-1" parent="2Wrs2S8qe6BhIUOV0hLt-0" />
        <mxCell id="2Wrs2S8qe6BhIUOV0hLt-2" value="SFU" style="rounded=0;whiteSpace=wrap;html=1;fontSize=12;align=center;" vertex="1" parent="2Wrs2S8qe6BhIUOV0hLt-1">
          <mxGeometry x="240" y="420" width="60" height="60" as="geometry" />
        </mxCell>
        <mxCell id="Yz7XipgbHqcp8aFFT8qU-2" style="edgeStyle=orthogonalEdgeStyle;rounded=0;orthogonalLoop=1;jettySize=auto;html=1;entryX=0;entryY=0.5;entryDx=0;entryDy=0;startArrow=none;startFill=0;endArrow=classic;endFill=1;fontSize=12;dashed=1;" edge="1" parent="2Wrs2S8qe6BhIUOV0hLt-1" source="Yz7XipgbHqcp8aFFT8qU-0" target="2Wrs2S8qe6BhIUOV0hLt-2">
          <mxGeometry relative="1" as="geometry" />
        </mxCell>
        <mxCell id="Yz7XipgbHqcp8aFFT8qU-45" value="录制" style="edgeLabel;html=1;align=center;verticalAlign=middle;resizable=0;points=[];fontSize=12;" vertex="1" connectable="0" parent="Yz7XipgbHqcp8aFFT8qU-2">
          <mxGeometry x="-0.0508" y="-2" relative="1" as="geometry">
            <mxPoint as="offset" />
          </mxGeometry>
        </mxCell>
        <mxCell id="Yz7XipgbHqcp8aFFT8qU-43" style="edgeStyle=orthogonalEdgeStyle;rounded=0;orthogonalLoop=1;jettySize=auto;html=1;exitX=1;exitY=0;exitDx=0;exitDy=0;entryX=0.5;entryY=1;entryDx=0;entryDy=0;startArrow=none;startFill=0;endArrow=classic;endFill=1;strokeColor=#000000;fontSize=12;dashed=1;" edge="1" parent="2Wrs2S8qe6BhIUOV0hLt-1" source="Yz7XipgbHqcp8aFFT8qU-0" target="Yz7XipgbHqcp8aFFT8qU-5">
          <mxGeometry relative="1" as="geometry">
            <Array as="points">
              <mxPoint x="400" y="510" />
            </Array>
          </mxGeometry>
        </mxCell>
        <mxCell id="Yz7XipgbHqcp8aFFT8qU-44" value="录制" style="edgeLabel;html=1;align=center;verticalAlign=middle;resizable=0;points=[];fontSize=12;" vertex="1" connectable="0" parent="Yz7XipgbHqcp8aFFT8qU-43">
          <mxGeometry x="-0.1481" y="1" relative="1" as="geometry">
            <mxPoint as="offset" />
          </mxGeometry>
        </mxCell>
        <mxCell id="Yz7XipgbHqcp8aFFT8qU-0" value="信令" style="rounded=0;whiteSpace=wrap;html=1;direction=south;" vertex="1" parent="2Wrs2S8qe6BhIUOV0hLt-1">
          <mxGeometry x="110" y="390" width="60" height="120" as="geometry" />
        </mxCell>
        <mxCell id="Yz7XipgbHqcp8aFFT8qU-18" style="edgeStyle=orthogonalEdgeStyle;rounded=0;orthogonalLoop=1;jettySize=auto;html=1;entryX=0.5;entryY=1;entryDx=0;entryDy=0;startArrow=none;startFill=0;endArrow=classic;endFill=1;fontSize=12;dashed=1;" edge="1" parent="2Wrs2S8qe6BhIUOV0hLt-1" source="Yz7XipgbHqcp8aFFT8qU-5" target="Yz7XipgbHqcp8aFFT8qU-9">
          <mxGeometry relative="1" as="geometry" />
        </mxCell>
        <mxCell id="Yz7XipgbHqcp8aFFT8qU-33" style="edgeStyle=orthogonalEdgeStyle;rounded=0;orthogonalLoop=1;jettySize=auto;html=1;exitX=1;exitY=0.5;exitDx=0;exitDy=0;entryX=0.5;entryY=1;entryDx=0;entryDy=0;startArrow=none;startFill=0;endArrow=classic;endFill=1;strokeColor=#000000;fontSize=12;" edge="1" parent="2Wrs2S8qe6BhIUOV0hLt-1" source="Yz7XipgbHqcp8aFFT8qU-5" target="Yz7XipgbHqcp8aFFT8qU-14">
          <mxGeometry relative="1" as="geometry" />
        </mxCell>
        <mxCell id="Yz7XipgbHqcp8aFFT8qU-34" value="下载" style="edgeLabel;html=1;align=center;verticalAlign=middle;resizable=0;points=[];fontSize=12;" vertex="1" connectable="0" parent="Yz7XipgbHqcp8aFFT8qU-33">
          <mxGeometry x="0.3208" y="-2" relative="1" as="geometry">
            <mxPoint as="offset" />
          </mxGeometry>
        </mxCell>
        <mxCell id="Yz7XipgbHqcp8aFFT8qU-5" value="录制&lt;br&gt;服务器" style="rounded=0;whiteSpace=wrap;html=1;fontSize=12;align=center;" vertex="1" parent="2Wrs2S8qe6BhIUOV0hLt-1">
          <mxGeometry x="370" y="420" width="60" height="60" as="geometry" />
        </mxCell>
        <mxCell id="Yz7XipgbHqcp8aFFT8qU-6" value="" style="endArrow=classic;html=1;fontSize=12;entryX=0;entryY=0.5;entryDx=0;entryDy=0;exitX=1;exitY=0.5;exitDx=0;exitDy=0;startArrow=none;startFill=0;" edge="1" parent="2Wrs2S8qe6BhIUOV0hLt-1" source="2Wrs2S8qe6BhIUOV0hLt-2" target="Yz7XipgbHqcp8aFFT8qU-5">
          <mxGeometry width="50" height="50" relative="1" as="geometry">
            <mxPoint x="350" y="330" as="sourcePoint" />
            <mxPoint x="400" y="280" as="targetPoint" />
          </mxGeometry>
        </mxCell>
        <mxCell id="Yz7XipgbHqcp8aFFT8qU-7" value="RTP" style="edgeLabel;html=1;align=center;verticalAlign=middle;resizable=0;points=[];fontSize=12;" vertex="1" connectable="0" parent="Yz7XipgbHqcp8aFFT8qU-6">
          <mxGeometry x="-0.1231" y="2" relative="1" as="geometry">
            <mxPoint as="offset" />
          </mxGeometry>
        </mxCell>
        <mxCell id="Yz7XipgbHqcp8aFFT8qU-19" style="edgeStyle=orthogonalEdgeStyle;rounded=0;orthogonalLoop=1;jettySize=auto;html=1;dashed=1;startArrow=classic;startFill=1;endArrow=classic;endFill=1;fontSize=12;exitX=1;exitY=0;exitDx=0;exitDy=0;" edge="1" parent="2Wrs2S8qe6BhIUOV0hLt-1" source="Yz7XipgbHqcp8aFFT8qU-9">
          <mxGeometry relative="1" as="geometry">
            <mxPoint x="544" y="260" as="sourcePoint" />
            <mxPoint x="500" y="220" as="targetPoint" />
            <Array as="points">
              <mxPoint x="490" y="220" />
              <mxPoint x="490" y="220" />
            </Array>
          </mxGeometry>
        </mxCell>
        <mxCell id="Yz7XipgbHqcp8aFFT8qU-20" style="edgeStyle=orthogonalEdgeStyle;rounded=0;orthogonalLoop=1;jettySize=auto;html=1;exitX=1;exitY=0.5;exitDx=0;exitDy=0;entryX=0;entryY=0.5;entryDx=0;entryDy=0;dashed=1;startArrow=classic;startFill=1;endArrow=classic;endFill=1;fontSize=12;" edge="1" parent="2Wrs2S8qe6BhIUOV0hLt-1" source="Yz7XipgbHqcp8aFFT8qU-9" target="Yz7XipgbHqcp8aFFT8qU-14">
          <mxGeometry relative="1" as="geometry" />
        </mxCell>
        <mxCell id="Yz7XipgbHqcp8aFFT8qU-21" style="edgeStyle=orthogonalEdgeStyle;rounded=0;orthogonalLoop=1;jettySize=auto;html=1;exitX=1;exitY=1;exitDx=0;exitDy=0;entryX=0.5;entryY=0;entryDx=0;entryDy=0;dashed=1;startArrow=classic;startFill=1;endArrow=classic;endFill=1;fontSize=12;" edge="1" parent="2Wrs2S8qe6BhIUOV0hLt-1" source="Yz7XipgbHqcp8aFFT8qU-9" target="Yz7XipgbHqcp8aFFT8qU-16">
          <mxGeometry relative="1" as="geometry">
            <Array as="points">
              <mxPoint x="560" y="390" />
              <mxPoint x="560" y="390" />
            </Array>
          </mxGeometry>
        </mxCell>
        <mxCell id="Yz7XipgbHqcp8aFFT8qU-9" value="转码控制服务器" style="rounded=0;whiteSpace=wrap;html=1;fontSize=12;align=center;verticalAlign=top;" vertex="1" parent="2Wrs2S8qe6BhIUOV0hLt-1">
          <mxGeometry x="370" y="220" width="60" height="170" as="geometry" />
        </mxCell>
        <mxCell id="Yz7XipgbHqcp8aFFT8qU-40" style="edgeStyle=orthogonalEdgeStyle;rounded=0;orthogonalLoop=1;jettySize=auto;html=1;exitX=1;exitY=0.5;exitDx=0;exitDy=0;entryX=0;entryY=0.5;entryDx=0;entryDy=0;startArrow=none;startFill=0;endArrow=classic;endFill=1;strokeColor=#000000;fontSize=12;" edge="1" parent="2Wrs2S8qe6BhIUOV0hLt-1" source="Yz7XipgbHqcp8aFFT8qU-14" target="Yz7XipgbHqcp8aFFT8qU-39">
          <mxGeometry relative="1" as="geometry" />
        </mxCell>
        <mxCell id="Yz7XipgbHqcp8aFFT8qU-41" value="上传" style="edgeLabel;html=1;align=center;verticalAlign=middle;resizable=0;points=[];fontSize=12;" vertex="1" connectable="0" parent="Yz7XipgbHqcp8aFFT8qU-40">
          <mxGeometry x="-0.2302" relative="1" as="geometry">
            <mxPoint as="offset" />
          </mxGeometry>
        </mxCell>
        <mxCell id="Yz7XipgbHqcp8aFFT8qU-14" value="&lt;meta charset=&quot;utf-8&quot;&gt;&lt;span style=&quot;color: rgb(0, 0, 0); font-family: helvetica; font-size: 12px; font-style: normal; font-weight: 400; letter-spacing: normal; text-align: center; text-indent: 0px; text-transform: none; word-spacing: 0px; background-color: rgb(248, 249, 250); display: inline; float: none;&quot;&gt;转码服务器&lt;/span&gt;" style="ellipse;whiteSpace=wrap;html=1;aspect=fixed;fontSize=12;align=center;" vertex="1" parent="2Wrs2S8qe6BhIUOV0hLt-1">
          <mxGeometry x="500" y="275" width="60" height="60" as="geometry" />
        </mxCell>
        <mxCell id="Yz7XipgbHqcp8aFFT8qU-26" style="edgeStyle=orthogonalEdgeStyle;rounded=0;orthogonalLoop=1;jettySize=auto;html=1;entryX=1;entryY=1;entryDx=0;entryDy=0;startArrow=classic;startFill=1;endArrow=none;endFill=0;strokeColor=#000000;fontSize=12;exitX=0.5;exitY=1;exitDx=0;exitDy=0;" edge="1" parent="2Wrs2S8qe6BhIUOV0hLt-1" source="Yz7XipgbHqcp8aFFT8qU-16" target="Yz7XipgbHqcp8aFFT8qU-5">
          <mxGeometry relative="1" as="geometry">
            <Array as="points">
              <mxPoint x="590" y="480" />
            </Array>
          </mxGeometry>
        </mxCell>
        <mxCell id="Yz7XipgbHqcp8aFFT8qU-28" value="下载" style="edgeLabel;html=1;align=center;verticalAlign=middle;resizable=0;points=[];fontSize=12;" vertex="1" connectable="0" parent="Yz7XipgbHqcp8aFFT8qU-26">
          <mxGeometry x="-0.0275" relative="1" as="geometry">
            <mxPoint as="offset" />
          </mxGeometry>
        </mxCell>
        <mxCell id="Yz7XipgbHqcp8aFFT8qU-36" style="edgeStyle=orthogonalEdgeStyle;rounded=0;orthogonalLoop=1;jettySize=auto;html=1;entryX=0;entryY=0.5;entryDx=0;entryDy=0;startArrow=none;startFill=0;endArrow=classic;endFill=1;strokeColor=#000000;fontSize=12;" edge="1" parent="2Wrs2S8qe6BhIUOV0hLt-1" source="Yz7XipgbHqcp8aFFT8qU-16" target="Yz7XipgbHqcp8aFFT8qU-31">
          <mxGeometry relative="1" as="geometry" />
        </mxCell>
        <mxCell id="Yz7XipgbHqcp8aFFT8qU-38" value="上传" style="edgeLabel;html=1;align=center;verticalAlign=middle;resizable=0;points=[];fontSize=12;" vertex="1" connectable="0" parent="Yz7XipgbHqcp8aFFT8qU-36">
          <mxGeometry x="-0.1361" y="-1" relative="1" as="geometry">
            <mxPoint as="offset" />
          </mxGeometry>
        </mxCell>
        <mxCell id="Yz7XipgbHqcp8aFFT8qU-16" value="&lt;meta charset=&quot;utf-8&quot;&gt;&lt;span style=&quot;color: rgb(0, 0, 0); font-family: helvetica; font-size: 12px; font-style: normal; font-weight: 400; letter-spacing: normal; text-align: center; text-indent: 0px; text-transform: none; word-spacing: 0px; background-color: rgb(248, 249, 250); display: inline; float: none;&quot;&gt;转码服务器&lt;/span&gt;" style="ellipse;whiteSpace=wrap;html=1;aspect=fixed;fontSize=12;align=center;" vertex="1" parent="2Wrs2S8qe6BhIUOV0hLt-1">
          <mxGeometry x="560" y="390" width="60" height="60" as="geometry" />
        </mxCell>
        <mxCell id="Yz7XipgbHqcp8aFFT8qU-17" value="&lt;meta charset=&quot;utf-8&quot;&gt;&lt;span style=&quot;color: rgb(0, 0, 0); font-family: helvetica; font-size: 12px; font-style: normal; font-weight: 400; letter-spacing: normal; text-align: center; text-indent: 0px; text-transform: none; word-spacing: 0px; background-color: rgb(248, 249, 250); display: inline; float: none;&quot;&gt;转码服务器&lt;/span&gt;" style="ellipse;whiteSpace=wrap;html=1;aspect=fixed;fontSize=12;align=center;" vertex="1" parent="2Wrs2S8qe6BhIUOV0hLt-1">
          <mxGeometry x="500" y="200" width="60" height="60" as="geometry" />
        </mxCell>
        <mxCell id="Yz7XipgbHqcp8aFFT8qU-23" value="任务队列" style="rounded=0;whiteSpace=wrap;html=1;fontSize=12;align=center;" vertex="1" parent="2Wrs2S8qe6BhIUOV0hLt-1">
          <mxGeometry x="385" y="260" width="30" height="110" as="geometry" />
        </mxCell>
        <mxCell id="Yz7XipgbHqcp8aFFT8qU-30" style="edgeStyle=orthogonalEdgeStyle;rounded=0;orthogonalLoop=1;jettySize=auto;html=1;exitX=0.5;exitY=1;exitDx=0;exitDy=0;startArrow=classic;startFill=1;endArrow=none;endFill=0;strokeColor=#000000;fontSize=12;dashed=1;entryX=0.5;entryY=0;entryDx=0;entryDy=0;" edge="1" parent="2Wrs2S8qe6BhIUOV0hLt-1" source="Yz7XipgbHqcp8aFFT8qU-29" target="Yz7XipgbHqcp8aFFT8qU-9">
          <mxGeometry relative="1" as="geometry">
            <mxPoint x="400" y="210" as="targetPoint" />
          </mxGeometry>
        </mxCell>
        <mxCell id="Yz7XipgbHqcp8aFFT8qU-29" value="DB" style="rounded=0;whiteSpace=wrap;html=1;fontSize=12;align=center;" vertex="1" parent="2Wrs2S8qe6BhIUOV0hLt-1">
          <mxGeometry x="370" y="110" width="60" height="60" as="geometry" />
        </mxCell>
        <mxCell id="Yz7XipgbHqcp8aFFT8qU-31" value="文件服务器" style="rounded=0;whiteSpace=wrap;html=1;fontSize=12;align=center;" vertex="1" parent="2Wrs2S8qe6BhIUOV0hLt-1">
          <mxGeometry x="700" y="390" width="70" height="60" as="geometry" />
        </mxCell>
        <mxCell id="Yz7XipgbHqcp8aFFT8qU-39" value="对象存储" style="rounded=0;whiteSpace=wrap;html=1;fontSize=12;align=center;" vertex="1" parent="2Wrs2S8qe6BhIUOV0hLt-1">
          <mxGeometry x="700" y="275" width="70" height="60" as="geometry" />
        </mxCell>
      </root>
    </mxGraphModel>
  </diagram>
</mxfile>
